<?xml version="1.0" encoding="utf-8"?>
<!-- Generator: Adobe Illustrator 22.0.1, SVG Export Plug-In . SVG Version: 6.00 Build 0)  -->
<svg version="1.1" id="Layer_1" xmlns:author="http://www.sothink.com"
	 xmlns="http://www.w3.org/2000/svg" xmlns:xlink="http://www.w3.org/1999/xlink" x="0px" y="0px" viewBox="0 0 22 22"
	 style="enable-background:new 0 0 22 22;" xml:space="preserve">
<style type="text/css">
	.st0{fill:#E3E3E3;}
	.st1{fill:#339933;}
	.st2{fill:none;stroke:#40BF40;stroke-width:0.5;stroke-linecap:round;stroke-linejoin:round;stroke-miterlimit:3;}
	.st3{fill:#ECA90E;}
	
		.st4{fill:none;stroke:#000000;stroke-width:5.000000e-02;stroke-linecap:round;stroke-linejoin:round;stroke-miterlimit:3;stroke-opacity:0.4;}
</style>
<g>
	<path class="st0" d="M20.1,11c0,2.5-0.9,4.6-2.6,6.5c-1.8,1.8-4,2.6-6.6,2.6c-2.5,0-4.5-0.9-6.4-2.6c-1.8-1.8-2.7-3.9-2.7-6.5
		c0-2.5,1-4.6,2.7-6.5s3.9-2.6,6.4-2.6c2.5,0,4.7,0.9,6.6,2.6C19.2,6.4,20.1,8.5,20.1,11"/>
	<path class="st1" d="M17.5,4.5c-1.8-1.8-4-2.6-6.6-2.6c-2.5,0-4.5,0.9-6.4,2.6s-2.7,4-2.7,6.5c0,2.5,1,4.6,2.7,6.5
		c1.8,1.8,3.9,2.6,6.4,2.6c2.5,0,4.7-0.9,6.6-2.6c1.8-1.8,2.6-3.9,2.6-6.5C20.1,8.5,19.2,6.4,17.5,4.5 M21.5,11c0,2.8-1.1,5.3-3,7.4
		c-2.1,2-4.5,3-7.5,3s-5.4-1.1-7.4-3l-2.3-3.2c-0.6-1.2-0.9-2.6-0.9-4.1s0.3-2.9,0.9-4.2c0.5-1.3,1.3-2.3,2.3-3.2c2-2,4.4-3,7.4-3
		s5.4,1.1,7.5,3C20.5,5.6,21.5,8.1,21.5,11"/>
	<path class="st2" d="M21.5,11c0,2.8-1.1,5.3-3,7.4c-2.1,2-4.5,3-7.5,3s-5.4-1.1-7.4-3l-2.3-3.2c-0.6-1.2-0.9-2.6-0.9-4.1
		s0.3-2.9,0.9-4.2c0.5-1.3,1.3-2.3,2.3-3.2c2-2,4.4-3,7.4-3s5.4,1.1,7.5,3C20.5,5.6,21.5,8.1,21.5,11z"/>
	<path class="st3" d="M11.1,2.4l2.3,5.8h5.6l-4.2,4.2l1,5.6l-4.5-2.2L6.7,18l1-5.6L3.4,8.2h5.5L11.1,2.4"/>
	<path class="st4" d="M11.1,2.4l2.3,5.8h5.6l-4.2,4.2l1,5.6l-4.5-2.2L6.7,18l1-5.6L3.4,8.2h5.5L11.1,2.4z"/>
</g>
</svg>
