<?xml version="1.0" encoding="utf-8"?>
<!-- Generator: Adobe Illustrator 22.0.1, SVG Export Plug-In . SVG Version: 6.00 Build 0)  -->
<svg version="1.1" id="Layer_1" xmlns:author="http://www.sothink.com"
	 xmlns="http://www.w3.org/2000/svg" xmlns:xlink="http://www.w3.org/1999/xlink" x="0px" y="0px" viewBox="0 0 22 22"
	 style="enable-background:new 0 0 22 22;" xml:space="preserve">
<style type="text/css">
	.st0{fill:#E3E3E3;}
	.st1{fill:#FE0000;}
	.st2{fill:none;stroke:#B20000;stroke-width:0.5;stroke-linecap:round;stroke-linejoin:round;stroke-miterlimit:3;}
	.st3{fill:#ECA90E;}
	
		.st4{fill:none;stroke:#000000;stroke-width:5.000000e-02;stroke-linecap:round;stroke-linejoin:round;stroke-miterlimit:3;stroke-opacity:0.4;}
</style>
<g>
	<path class="st0" d="M20.2,11c0,2.6-0.9,4.7-2.7,6.5s-4,2.7-6.6,2.7c-2.5,0-4.6-0.9-6.4-2.7S1.7,13.6,1.7,11c0-2.5,1-4.7,2.8-6.5
		s3.9-2.7,6.4-2.7c2.6,0,4.8,0.9,6.6,2.7S20.2,8.5,20.2,11"/>
	<path class="st1" d="M17.5,4.5c-1.8-1.8-4-2.7-6.6-2.7c-2.5,0-4.6,0.9-6.4,2.7s-2.8,4-2.8,6.5c0,2.6,1,4.7,2.8,6.5s3.9,2.7,6.4,2.7
		c2.6,0,4.8-0.9,6.6-2.7s2.7-3.9,2.7-6.5C20.2,8.5,19.3,6.3,17.5,4.5 M21.6,11c0,2.9-1.1,5.4-3.1,7.5c-2.1,2.1-4.6,3.1-7.6,3.1
		s-5.5-1-7.5-3.1l-2.3-3.3C0.7,14,0.4,12.5,0.4,11s0.3-3,0.9-4.2c0.5-1.2,1.2-2.3,2.3-3.3c2-2,4.5-3.1,7.5-3.1s5.5,1.1,7.6,3.1
		C20.6,5.5,21.6,8,21.6,11"/>
	<path class="st2" d="M21.6,11c0,2.9-1.1,5.4-3.1,7.5c-2.1,2.1-4.6,3.1-7.6,3.1s-5.5-1-7.5-3.1l-2.3-3.3C0.7,14,0.4,12.5,0.4,11
		s0.3-3,0.9-4.2c0.5-1.2,1.2-2.3,2.3-3.3c2-2,4.5-3.1,7.5-3.1s5.5,1.1,7.6,3.1C20.6,5.5,21.6,8,21.6,11z"/>
	<path class="st3" d="M11.1,2.3l2.3,5.8H19l-4.3,4.3l1,5.6l-4.6-2.2l-4.6,2.2l1-5.6L3.2,8.1h5.6L11.1,2.3"/>
	<path class="st4" d="M11.1,2.3l2.3,5.8H19l-4.3,4.3l1,5.6l-4.6-2.2l-4.6,2.2l1-5.6L3.2,8.1h5.6L11.1,2.3z"/>
</g>
</svg>
