<?xml version="1.0" encoding="utf-8"?>
<!-- Generator: Adobe Illustrator 22.0.1, SVG Export Plug-In . SVG Version: 6.00 Build 0)  -->
<svg version="1.1" id="Layer_1" xmlns:author="http://www.sothink.com"
	 xmlns="http://www.w3.org/2000/svg" xmlns:xlink="http://www.w3.org/1999/xlink" x="0px" y="0px" viewBox="0 0 22 22"
	 style="enable-background:new 0 0 22 22;" xml:space="preserve">
<style type="text/css">
	.st0{fill:#FE0000;}
	.st1{fill:#B20000;}
	
		.st2{fill:none;stroke:#000000;stroke-width:0.2;stroke-linecap:round;stroke-linejoin:round;stroke-miterlimit:3;stroke-opacity:0.302;}
</style>
<g>
	<path class="st0" d="M7.1,11.2l0.2-9.9c0-0.3,0.1-0.5,0.3-0.6l0.1-0.1l0.3-0.3l0.4-0.1h0.2l1.8,0.1h1.4l3-0.1l0.6,0.2l0.4,0.4
		l0.2,0.6l-0.4,3C14.3,8.7,11.5,10.9,7.1,11.2 M6.4,19.8l0.1-2.4c0-0.3,0.2-0.5,0.5-0.6c0.1-0.2,0.4-0.3,0.7-0.3h6.1l0.5,0.2
		l0.4,0.3l0.1,0.6v0.2C13,19.3,10.2,20,6.4,19.8"/>
	<path class="st1" d="M7.1,11.2c4.4-0.2,7.2-2.5,8.4-6.8l-0.8,8.1l-0.4,0.6l-0.7,0.2h-2.4H9.9H8.1H7.7l-0.2-0.1l-0.4-0.4L7,12.4
		L7.1,11.2 M6.4,19.8c3.8,0.2,6.6-0.5,8.5-2.1l-0.2,3.1l-0.4,0.6l-0.7,0.3h-3.1H7.3l-0.6-0.1l-0.4-0.4l-0.2-0.5L6.4,19.8"/>
	<path class="st2" d="M15.5,4.4l0.4-3l-0.2-0.6l-0.4-0.4l-0.6-0.2l-3,0.1h-1.4L8.5,0.2H8.3L7.9,0.3L7.6,0.5L7.6,0.6
		C7.4,0.8,7.3,1,7.3,1.3l-0.2,9.9 M15.5,4.4l-0.8,8.1l-0.4,0.6l-0.7,0.2h-2.4H9.9H8.1H7.7l-0.2-0.1l-0.4-0.4L7,12.4l0.1-1.3
		 M14.9,17.8v-0.2L14.8,17l-0.4-0.3l-0.5-0.2H7.7c-0.4,0-0.6,0.1-0.7,0.3c-0.4,0.1-0.5,0.3-0.5,0.6l-0.1,2.4 M14.9,17.8l-0.2,3.1
		l-0.4,0.6l-0.7,0.3h-3.1H7.3l-0.6-0.1l-0.4-0.4l-0.2-0.5l0.3-1"/>
</g>
</svg>
