<?xml version="1.0" encoding="utf-8"?>
<!-- Generator: Adobe Illustrator 22.0.1, SVG Export Plug-In . SVG Version: 6.00 Build 0)  -->
<svg version="1.1" id="Layer_1" xmlns:author="http://www.sothink.com"
	 xmlns="http://www.w3.org/2000/svg" xmlns:xlink="http://www.w3.org/1999/xlink" x="0px" y="0px" viewBox="0 0 22 22"
	 style="enable-background:new 0 0 22 22;" xml:space="preserve">
<style type="text/css">
	.st0{fill:#E3E3E3;}
	.st1{fill:#ECA90E;}
	.st2{fill:none;stroke:#C48B0B;stroke-width:0.5;stroke-linecap:round;stroke-linejoin:round;stroke-miterlimit:3;}
	.st3{fill:#FE0000;}
	.st4{fill:#B20000;}
	
		.st5{fill:none;stroke:#000000;stroke-width:0.2;stroke-linecap:round;stroke-linejoin:round;stroke-miterlimit:3;stroke-opacity:0.302;}
</style>
<g>
	<path class="st0" d="M19.7,11.5c0,2.4-0.8,4.5-2.5,6.2c-1.7,1.7-3.8,2.5-6.2,2.5c-2.4,0-4.4-0.8-6.1-2.5c-1.7-1.7-2.6-3.7-2.6-6.2
		c0-2.4,0.9-4.4,2.6-6.2c1.7-1.7,3.7-2.5,6.1-2.5c2.5,0,4.6,0.8,6.2,2.5C18.8,7,19.7,9.1,19.7,11.5"/>
	<path class="st1" d="M21,11.5c0,2.7-1,5.1-2.9,7.1c-2,1.9-4.4,2.9-7.1,2.9s-5.1-1-7.1-2.9c-2-2-3-4.3-3-7.1c0-2.8,1-5.1,3-7.1
		C5.9,2.5,8.2,1.5,11,1.5s5.2,1,7.1,2.9C20.1,6.3,21,8.7,21,11.5 M17.2,5.3c-1.7-1.7-3.8-2.5-6.2-2.5c-2.4,0-4.4,0.8-6.1,2.5
		C3.1,7,2.2,9.1,2.2,11.5c0,2.4,0.9,4.5,2.6,6.2c1.7,1.7,3.7,2.5,6.1,2.5c2.5,0,4.6-0.8,6.2-2.5c1.7-1.7,2.5-3.7,2.5-6.2
		C19.7,9.1,18.8,7,17.2,5.3"/>
	<path class="st2" d="M21,11.5c0,2.7-1,5.1-2.9,7.1c-2,1.9-4.4,2.9-7.1,2.9s-5.1-1-7.1-2.9c-2-2-3-4.3-3-7.1c0-2.8,1-5.1,3-7.1
		C5.9,2.5,8.2,1.5,11,1.5s5.2,1,7.1,2.9C20.1,6.3,21,8.7,21,11.5z"/>
	<path class="st3" d="M7.1,11.2l0.2-10c0-0.3,0.1-0.5,0.3-0.6l0.1-0.1l0.3-0.3l0.4-0.1h0.2l1.8,0.1h1.4l3.1-0.1l0.6,0.2l0.4,0.4
		L16,1.2l-0.4,3.1C14.4,8.6,11.6,10.9,7.1,11.2 M15,17.9c-1.9,1.6-4.8,2.3-8.6,2.1l0.1-2.4c0-0.3,0.2-0.5,0.5-0.6
		c0.1-0.2,0.4-0.3,0.7-0.3h6.2l0.5,0.2l0.5,0.3l0.1,0.6V17.9"/>
	<path class="st4" d="M7.1,11.2c4.5-0.2,7.3-2.5,8.5-6.9l-0.8,8.2l-0.4,0.6l-0.7,0.2h-2.4H9.9H8.1H7.7l-0.2-0.1l-0.5-0.4L7,12.4
		L7.1,11.2 M15,17.9L14.8,21l-0.4,0.6l-0.7,0.3h-3.2H7.3l-0.6-0.1l-0.4-0.4L6.1,21l0.3-1C10.2,20.1,13.1,19.4,15,17.9"/>
	<path class="st5" d="M15.6,4.3L16,1.2l-0.2-0.6l-0.4-0.4l-0.6-0.2l-3.1,0.1h-1.4L8.5,0.1H8.3L7.9,0.1L7.7,0.4L7.6,0.5
		C7.4,0.6,7.3,0.8,7.3,1.1l-0.2,10 M15.6,4.3l-0.8,8.2l-0.4,0.6l-0.7,0.2h-2.4H9.9H8.1H7.7l-0.2-0.1l-0.5-0.4L7,12.4l0.1-1.3
		 M6.4,20l-0.3,1l0.2,0.5l0.4,0.4l0.6,0.1h3.3h3.2l0.7-0.3l0.4-0.6l0.2-3.2 M6.4,20l0.1-2.4c0-0.3,0.2-0.5,0.5-0.6
		c0.1-0.2,0.4-0.3,0.7-0.3h6.2l0.5,0.2l0.5,0.3l0.1,0.6v0.2"/>
</g>
</svg>
