<?xml version="1.0" encoding="utf-8"?>
<!-- Generator: Adobe Illustrator 22.0.1, SVG Export Plug-In . SVG Version: 6.00 Build 0)  -->
<svg version="1.1" id="Layer_1" xmlns:author="http://www.sothink.com"
	 xmlns="http://www.w3.org/2000/svg" xmlns:xlink="http://www.w3.org/1999/xlink" x="0px" y="0px" viewBox="0 0 22 22"
	 style="enable-background:new 0 0 22 22;" xml:space="preserve">
<style type="text/css">
	.st0{fill:#FFFFFF;}
	.st1{fill:#0E79FA;}
	
		.st2{fill:none;stroke:#000000;stroke-width:0.2;stroke-linecap:round;stroke-linejoin:round;stroke-miterlimit:3;stroke-opacity:0.302;}
	.st3{fill:#FE0000;}
	.st4{fill:#B20000;}
</style>
<g>
	<path class="st0" d="M8.3,14.7c0.4-0.5,1-0.8,1.7-0.8c0.7,0,1.2,0.3,1.7,0.8c0.5,0.5,0.8,1.1,0.8,1.7c0,0.7-0.3,1.3-0.8,1.8
		C11.2,18.7,10.7,19,10,19c-0.7,0-1.3-0.2-1.7-0.7c-0.5-0.5-0.8-1.1-0.8-1.8C7.4,15.8,7.7,15.2,8.3,14.7"/>
	<path class="st1" d="M7.4,16.4c0,0.7,0.3,1.3,0.8,1.8c0.4,0.5,1,0.7,1.7,0.7c0.7,0,1.2-0.2,1.7-0.7c0.5-0.5,0.8-1.1,0.8-1.8
		c0-0.7-0.3-1.2-0.8-1.7c-0.5-0.5-1.1-0.8-1.7-0.8c-0.7,0-1.3,0.3-1.7,0.8C7.7,15.2,7.4,15.8,7.4,16.4 M6.3,12.7
		c1-1.1,2.3-1.6,3.7-1.6c1.5,0,2.8,0.5,3.8,1.6c1.1,1.1,1.6,2.4,1.6,3.8c0,1.5-0.5,2.7-1.6,3.7c-1,1.1-2.3,1.6-3.8,1.6
		c-1.5,0-2.7-0.5-3.7-1.6c-1.1-1-1.6-2.3-1.6-3.7C4.6,15.1,5.2,13.8,6.3,12.7"/>
	<path class="st2" d="M6.3,12.7c1-1.1,2.3-1.6,3.7-1.6c1.5,0,2.8,0.5,3.8,1.6c1.1,1.1,1.6,2.4,1.6,3.8c0,1.5-0.5,2.7-1.6,3.7
		c-1,1.1-2.3,1.6-3.8,1.6c-1.5,0-2.7-0.5-3.7-1.6c-1.1-1-1.6-2.3-1.6-3.7C4.6,15.1,5.2,13.8,6.3,12.7z"/>
	<path class="st3" d="M10.9,8.3L11,0.9c0-0.2,0.1-0.4,0.3-0.5V0.4l0.2-0.2l0.3-0.1h0.2l1.3,0.1h1.1l2.3-0.1L17,0.3l0.3,0.3L17.4,1
		l-0.3,2.2C16.3,6.4,14.2,8.1,10.9,8.3 M10.4,14.8l0.1-1.8l0.4-0.5l0.5-0.2h4.6l0.4,0.1l0.4,0.2v0.5v0.2
		C15.3,14.4,13.2,14.9,10.4,14.8"/>
	<path class="st4" d="M10.9,8.3c3.3-0.2,5.4-1.9,6.2-5.1l-0.5,6.1l-0.3,0.5l-0.5,0.1h-1.8H13h-1.4h-0.3h-0.1l-0.4-0.3l-0.1-0.4
		L10.9,8.3 M10.4,14.8c2.8,0.1,4.9-0.4,6.3-1.6l-0.1,2.3L16.3,16l-0.5,0.3h-2.3H11l-0.5-0.1l-0.3-0.3l-0.1-0.4L10.4,14.8"/>
	<path class="st2" d="M17.1,3.2L17.4,1l-0.1-0.5L17,0.3l-0.5-0.2l-2.3,0.1h-1.1l-1.3-0.1h-0.2l-0.3,0.1l-0.2,0.2v0.1
		C11.1,0.5,11,0.7,11,0.9l-0.1,7.4 M17.1,3.2l-0.5,6.1l-0.3,0.5l-0.5,0.1h-1.8H13h-1.4h-0.3h-0.1l-0.4-0.3l-0.1-0.4l0.1-0.9
		 M16.7,13.2v-0.2v-0.5l-0.4-0.2l-0.4-0.1h-4.6l-0.5,0.2L10.5,13l-0.1,1.8 M16.7,13.2l-0.1,2.3L16.3,16l-0.5,0.3h-2.3H11l-0.5-0.1
		l-0.3-0.3l-0.1-0.4l0.2-0.7"/>
</g>
</svg>
