<svg id="Layer_1" data-name="Layer 1" xmlns="http://www.w3.org/2000/svg" viewBox="0 0 22.07 22"><defs><style>.cls-1{fill:#fd8080;}.cls-2{fill:#9a0202;}.cls-3{fill:#e2e2e2;}.cls-4{fill:#fe0000;}</style></defs><title>Fire_square</title><path class="cls-1" d="M22,22H0A.19.19,0,0,1,0,21.84a1.48,1.48,0,0,1,0-.21V.37A1.48,1.48,0,0,1,0,.16.19.19,0,0,1,0,0H22A.19.19,0,0,1,22,.16a1.48,1.48,0,0,1,0,.21V21.63a1.48,1.48,0,0,1,0,.21A.19.19,0,0,1,22,22Z" transform="translate(0.04)"/><path class="cls-2" d="M.7,11.07v-10C.7.91.7.91.89.91H20.82c.19,0,.19,0,.19.19V21c0,.19,0,.19-.19.19H.88c-.14,0-.18,0-.18-.18Z" transform="translate(0.04)"/><path class="cls-3" d="M8.64,20.39h-7c-.09,0-.13,0-.12-.11s0-.05,0-.07V2c0-.15,0-.18.18-.18H19.93c.14,0,.18,0,.18.17V20.23c0,.13,0,.17-.17.17H14c-.1,0,0-.05,0-.07a.19.19,0,0,1,.1-.17l.7-.74a16.18,16.18,0,0,0,1.69-2.17c.35-.53.67-1.09,1-1.65A1.69,1.69,0,0,0,17.6,15a6.06,6.06,0,0,0-.53-2.58c-.08-.23-.19-.45-.27-.67a2.21,2.21,0,0,1,.06.68c0,.39.06.79.07,1.19a.66.66,0,0,1-.11.4,6.32,6.32,0,0,1-.65,1,2.63,2.63,0,0,1-1.37,1c-.09,0-.2.09-.29,0s0-.2,0-.29a13.3,13.3,0,0,0,.73-2.4,7,7,0,0,0,.12-1.94,6.62,6.62,0,0,0-1-3.08A.9.9,0,0,0,14.24,8c-.46-.4-.88-.83-1.33-1.25L12.1,6c-.27-.27-.55-.53-.83-.79s-.53-.53-.82-.77a1.07,1.07,0,0,1-.14-.16,4.77,4.77,0,0,1,.58,1.4,4.19,4.19,0,0,1-.26,2.59,7.76,7.76,0,0,1-.76,1.27,10.79,10.79,0,0,1-1.5,1.87,5.71,5.71,0,0,1-1.41,1l-.12.05a.12.12,0,0,1-.17-.1,2.43,2.43,0,0,1,0-.66c0-.23,0-.46,0-.69a6.83,6.83,0,0,1,.82-2.65c.09-.15.18-.3.29-.46a2.92,2.92,0,0,0-.88.5,5.77,5.77,0,0,0-1.4,1.82,13.06,13.06,0,0,0-1,2.55,1.27,1.27,0,0,1-.06.18s0,.09-.09.09S4.27,13,4.26,13a2.57,2.57,0,0,1-.08-.4c0-.21-.09-.41-.13-.63a15.47,15.47,0,0,0,.39,2.88c.1.46.19.93.33,1.38a4.43,4.43,0,0,0,.89,1.51,8.07,8.07,0,0,0,.62.68,18.11,18.11,0,0,0,2,1.64c.1.07.2.13.3.21S8.65,20.31,8.64,20.39Z" transform="translate(0.04)"/><path class="cls-4" d="M8.64,20.39l-1.08-.81a13.47,13.47,0,0,1-1.8-1.66,5.17,5.17,0,0,1-1.25-2.45c-.17-.9-.38-1.79-.47-2.71a4.25,4.25,0,0,1,0-1.07A12.65,12.65,0,0,1,4.35,13,16.34,16.34,0,0,1,5,11.22,8.08,8.08,0,0,1,6.43,8.81a3.43,3.43,0,0,1,1.4-1s.07,0,.12,0a6.27,6.27,0,0,0-1,2.21,8.26,8.26,0,0,0-.21,2.44,3.06,3.06,0,0,0,.54-.28,7.81,7.81,0,0,0,2.15-2.1,18.18,18.18,0,0,0,1-1.56A3.73,3.73,0,0,0,10.9,7a4.3,4.3,0,0,0-.68-2.74s-.07-.07-.07-.13.09.05.13.08L14.3,8a2.24,2.24,0,0,1,.38.58,6.81,6.81,0,0,1,.74,4.11,11.67,11.67,0,0,1-.85,3.07.38.38,0,0,0-.05.15,1.79,1.79,0,0,0,1-.4,5.13,5.13,0,0,0,1.37-1.73.22.22,0,0,0,0-.11c0-.71-.09-1.41-.13-2.12,0,0,0,0,0,0A8.53,8.53,0,0,1,17.61,14a3.83,3.83,0,0,1,0,1.35,2,2,0,0,1-.25.55,17.18,17.18,0,0,1-3.28,4.33l-.06.05a.78.78,0,0,1-.55-1.08c0-.17.21-.27.33-.4l2-2.13,0-.05c-.06,0-.09,0-.13.05l-3.44,2.43a.31.31,0,0,1-.5-.18,1.18,1.18,0,0,1,0-.59c.15-.57.31-1.13.48-1.7a.49.49,0,0,1,.43-.32c.26-.05.26-.05.2-.31a10,10,0,0,1-.23-1.89,3.76,3.76,0,0,1,.19-1.33c0-.08.1-.2,0-.24s-.13.1-.18.17A12,12,0,0,1,11.77,14,12.7,12.7,0,0,1,9.39,16.3a1.55,1.55,0,0,1-1.3.24,6.49,6.49,0,0,1-2-.81.23.23,0,0,0-.16-.05c.13.26.25.52.39.77a10,10,0,0,0,2.16,2.61,4,4,0,0,1,.73.85.4.4,0,0,1-.09.63.17.17,0,0,1-.22,0A.7.7,0,0,0,8.64,20.39Z" transform="translate(0.04)"/></svg>