<?xml version="1.0" encoding="utf-8"?>
<!-- Generator: Adobe Illustrator 22.0.1, SVG Export Plug-In . SVG Version: 6.00 Build 0)  -->
<svg version="1.1" id="Layer_1" xmlns:author="http://www.sothink.com"
	 xmlns="http://www.w3.org/2000/svg" xmlns:xlink="http://www.w3.org/1999/xlink" x="0px" y="0px" viewBox="0 0 22 22"
	 style="enable-background:new 0 0 22 22;" xml:space="preserve">
<style type="text/css">
	.st0{fill:#E3E3E3;}
	.st1{fill:#D13800;}
	.st2{fill:#8F1D01;}
	.st3{fill:none;stroke:#D13800;stroke-width:0.5;stroke-linecap:round;stroke-linejoin:round;stroke-miterlimit:3;}
</style>
<g>
	<path class="st0" d="M19.9,11.1c0,2.4-0.8,4.5-2.6,6.2C15.6,19.1,13.5,20,11,20s-4.6-0.8-6.2-2.6C3,15.6,2,13.5,2,11.1
		C2,8.6,3,6.5,4.8,4.8C6.4,3,8.5,2.1,11,2.1s4.6,0.8,6.2,2.6S19.9,8.6,19.9,11.1 M12.1,4.8L12,4.6l-1.6-1.3L11.1,4
		c0.3,1.6-0.4,2.5-1.8,2.9C8,7.5,7.5,8.5,7.5,9.8c0.1,0.8-0.1,1.3-0.7,1.6c-0.3,0.3-0.4-0.1-0.3-1c-1,0.7-1.4,1.9-1.2,3.7
		c0.6,3.2,2.3,4.8,5.2,4.8c2.1,0.3,3.7-0.6,5.1-2.5c0.8-1.8,0.9-3.7,0.4-6c-0.4,1-1.1,1.8-2.2,2.1c0.9-1.3,1.4-2.3,1.3-3l-0.1-0.1
		c-0.1-1.6-0.6-2.6-1.6-3.1C13.8,7.2,13.4,8,12.4,9c-0.7,0.3-1,0.9-1.1,1.9c-1-1-1.1-2.1-0.4-3.1L11,7.7C12,6.7,12.4,5.7,12.1,4.8"
		/>
	<path class="st1" d="M11,7.7L11,7.7c-0.8,1.1-0.7,2.1,0.3,3.2c0.1-0.9,0.5-1.6,1.1-1.9c1-1,1.4-1.9,1.1-2.6c1,0.5,1.5,1.5,1.6,3.1
		l0.1,0.1c0.1,0.7-0.4,1.7-1.3,3c1.1-0.4,1.9-1.1,2.2-2.1c0.6,2.2,0.5,4.2-0.4,6c-1.4,2-3.1,2.8-5.1,2.5c-2.9-0.1-4.7-1.7-5.2-4.8
		c-0.2-1.9,0.2-3.1,1.2-3.7c-0.1,0.9,0,1.3,0.3,1c0.6-0.3,0.7-0.7,0.7-1.6C7.5,8.5,8,7.5,9.3,6.9c1.4-0.4,2.1-1.3,1.8-2.9l-0.7-0.7
		L12,4.6l0.1,0.3C12.4,5.7,12,6.7,11,7.7"/>
	<path class="st2" d="M21.3,11c0,2.8-1,5.2-3,7.3c-2,2-4.4,3-7.3,3s-5.2-1-7.2-3c-2.1-2.1-3.1-4.5-3.1-7.3c0-2.9,1-5.3,3.1-7.3
		c2-2,4.3-3,7.2-3s5.3,1,7.3,3S21.3,8.1,21.3,11 M17.2,4.8C15.6,3,13.5,2.1,11,2.1S6.4,3,4.8,4.8C3,6.5,2,8.6,2,11.1
		c0,2.4,0.9,4.5,2.7,6.2C6.4,19.1,8.5,20,11,20s4.6-0.8,6.2-2.6c1.8-1.8,2.6-3.8,2.6-6.2C19.9,8.6,18.9,6.5,17.2,4.8"/>
	<path class="st3" d="M21.3,11c0,2.8-1,5.2-3,7.3c-2,2-4.4,3-7.3,3s-5.2-1-7.2-3c-2.1-2.1-3.1-4.5-3.1-7.3c0-2.9,1-5.3,3.1-7.3
		c2-2,4.3-3,7.2-3s5.3,1,7.3,3S21.3,8.1,21.3,11z"/>
</g>
</svg>
