<?xml version="1.0" encoding="utf-8"?>
<!-- Generator: Adobe Illustrator 22.0.1, SVG Export Plug-In . SVG Version: 6.00 Build 0)  -->
<svg version="1.1" id="Layer_1" xmlns:author="http://www.sothink.com"
	 xmlns="http://www.w3.org/2000/svg" xmlns:xlink="http://www.w3.org/1999/xlink" x="0px" y="0px" viewBox="0 0 22 22"
	 style="enable-background:new 0 0 22 22;" xml:space="preserve">
<style type="text/css">
	.st0{fill:#FF9900;}
	.st1{fill:#B3CB20;}
	
		.st2{fill:none;stroke:#000000;stroke-width:5.000000e-02;stroke-linecap:round;stroke-linejoin:round;stroke-miterlimit:3;stroke-opacity:0.502;}
</style>
<g>
	<path class="st0" d="M17.5,7.9l4.2-1.2l-2.1,3.8l2.4,1.6h-3.9l-0.6-1.1L16.8,10c-0.6-0.7-1.2-1-1.8-1.1l-0.2-0.1
		c-0.7-0.3-1.5-0.3-2.6,0c-0.4,0.1-0.9,0.3-1.3,0.6l-0.7-5.7L13,7.3l3.4-6.5L17.5,7.9"/>
	<path class="st1" d="M17.6,15.8l-5.9,2.6h-0.2c-0.9-0.1-1.7,0.2-2.4,1.1l-3.8,1.7c-0.4-0.2-0.5-0.5-0.5-1.1
		c-0.8-1.5-1.3-3.1-1.5-4.7l-1.6-3.7L1.6,12c-1-1-1.5-2.2-1.5-3.5l5.7-2.6c1,1,1.5,2.2,1.5,3.5L7.1,9.5l0.2,0.3L7.5,10v0.3L7.8,11
		l0.2,0.5l0.4,1.1l3.8-2.1c0.9-0.2,1.7-0.1,2.5,0.4l1.3,1.4c0.5,0.7,0.9,1.5,1.1,2.6C17.7,15,17.8,15.3,17.6,15.8"/>
	<path class="st2" d="M17.5,7.9l4.2-1.2l-2.1,3.8l2.4,1.6h-3.9l-0.6-1.1L16.8,10c-0.6-0.7-1.2-1-1.8-1.1l-0.2-0.1
		c-0.7-0.3-1.5-0.3-2.6,0c-0.4,0.1-0.9,0.3-1.3,0.6l-0.7-5.7L13,7.3l3.4-6.5L17.5,7.9 M17.2,14.8c-0.3-1.1-0.7-2-1.1-2.6l-1.3-1.4
		c-0.8-0.5-1.6-0.6-2.5-0.4l-3.8,2.1l-0.4-1.1L7.8,11l-0.3-0.7V10L7.2,9.9L7.1,9.5l0.2-0.2c0.1-1.3-0.4-2.5-1.5-3.5L0.1,8.5
		C0.1,9.8,0.6,10.9,1.6,12l0.2-0.2l1.6,3.7c0.2,1.6,0.7,3.1,1.5,4.7c-0.1,0.5,0.1,0.9,0.5,1.1l3.8-1.7c0.7-0.8,1.4-1.2,2.4-1.1h0.2
		l5.9-2.6C17.8,15.3,17.7,15,17.2,14.8"/>
</g>
</svg>
