<?xml version="1.0" encoding="utf-8"?>
<!-- Generator: Adobe Illustrator 22.0.1, SVG Export Plug-In . SVG Version: 6.00 Build 0)  -->
<svg version="1.1" id="Layer_1" xmlns:author="http://www.sothink.com"
	 xmlns="http://www.w3.org/2000/svg" xmlns:xlink="http://www.w3.org/1999/xlink" x="0px" y="0px" viewBox="0 0 22 22"
	 style="enable-background:new 0 0 22 22;" xml:space="preserve">
<style type="text/css">
	.st0{fill:#FFFFFF;}
	.st1{fill:#CC0000;}
	.st2{fill:#EA473A;}
	.st3{fill:#99CC00;}
	.st4{fill:#4A5C01;}
	.st5{fill:#333300;}
	
		.st6{fill:none;stroke:#000000;stroke-width:5.000000e-02;stroke-linecap:round;stroke-linejoin:round;stroke-miterlimit:3;stroke-opacity:0.502;}
</style>
<g>
	<path class="st0" d="M5.3,6.9l3.3-2.1l0.9-0.5L8.9,4.1V4L8.6,3.8L6.7,3h7.6v3.5v0.9l-3.2-2L7.1,8L5.3,6.9"/>
	<path class="st1" d="M14.3,7.4v0.9l-1.5-0.9l-1.5-0.9h-0.1V5.4L14.3,7.4 M7.1,8v1L5.3,7.9v-1L7.1,8 M8.6,3.8l0.3,0.3l0.5,0.3
		L8.6,4.8L6.7,3.9V3L8.6,3.8"/>
	<path class="st2" d="M7.1,8l4.1-2.6v0.9v0.1L7.1,9V8"/>
	<path class="st3" d="M0,14.2l4.9-2.7l5-2.6l2.9-1.5l1.5,0.9V7.4V6.5L15.2,6L22,8.9l-5.4,2.8l-5,2.7l-5,2.6L0,14.2"/>
	<path class="st4" d="M6.6,17l5-2.6l5-2.7L22,8.9V11L6.6,19V17"/>
	<path class="st5" d="M6.6,17V19L0,16v-1.9L6.6,17"/>
	<path class="st6" d="M6.6,19L22,11V8.9l-5.4,2.8l-5,2.7l-5,2.6V19L0,16v-1.9l4.9-2.7l5-2.6l2.9-1.5l-1.5-0.9h-0.1v0.1L7.1,9
		L5.3,7.9v-1l3.3-2.1L6.7,3.9V3h7.6v3.5L15.2,6L22,8.9 M8.9,4.1L8.6,3.8L8.9,4.1L8.9,4.1l0.5,0.3L8.6,4.8 M8.6,3.8L6.7,3 M14.3,7.4
		l-3.2-2v0.9 M12.8,7.3l1.5,0.9V7.4V6.5 M11.2,5.4L7.1,8v1 M7.1,8L5.3,6.9 M6.6,17L0,14.2 M4.9,11.4l6.7,3 M9.9,8.9l6.7,2.9"/>
</g>
</svg>
