<?xml version="1.0" encoding="utf-8"?>
<!-- Generator: Adobe Illustrator 22.0.1, SVG Export Plug-In . SVG Version: 6.00 Build 0)  -->
<svg version="1.1" id="Layer_1" xmlns:author="http://www.sothink.com"
	 xmlns="http://www.w3.org/2000/svg" xmlns:xlink="http://www.w3.org/1999/xlink" x="0px" y="0px" viewBox="0 0 22 22"
	 style="enable-background:new 0 0 22 22;" xml:space="preserve">
<style type="text/css">
	.st0{fill:#E3E3E3;}
	.st1{fill:#339933;}
	.st2{fill:none;stroke:#40BF40;stroke-width:0.5;stroke-linecap:round;stroke-linejoin:round;stroke-miterlimit:3;}
	.st3{fill:#B3CB20;}
	
		.st4{fill:none;stroke:#000000;stroke-width:5.000000e-02;stroke-linecap:round;stroke-linejoin:round;stroke-miterlimit:3;stroke-opacity:0.502;}
</style>
<g>
	<path class="st0" d="M17.4,17.4c-1.7,1.7-4,2.6-6.5,2.6c-2.4,0-4.6-0.9-6.3-2.6S1.9,13.5,1.9,11c0-2.4,1-4.7,2.7-6.4S8.5,2,10.9,2
		c2.5,0,4.8,0.9,6.5,2.6S20,8.6,20,11C20,13.4,19.2,15.7,17.4,17.4"/>
	<path class="st1" d="M20,11c0-2.4-0.9-4.7-2.6-6.4S13.4,2,10.9,2C8.5,2,6.3,2.8,4.6,4.6c-1.8,1.7-2.7,4-2.7,6.4
		c0,2.5,1,4.7,2.7,6.4S8.5,20,10.9,20c2.5,0,4.8-0.9,6.5-2.6S20,13.4,20,11 M21.5,11c0,2.8-1.1,5.2-3,7.4c-2,1.9-4.6,3-7.5,3
		s-5.3-1.1-7.4-3l-2.2-3.2c-0.6-1.4-0.9-2.6-0.9-4.2s0.3-2.9,0.9-4.2c0.5-1.3,1.3-2.2,2.2-3.2c1.9-1.9,4.5-3,7.4-3s5.3,1.1,7.5,3
		C20.4,5.7,21.5,8.1,21.5,11"/>
	<path class="st2" d="M21.5,11c0,2.8-1.1,5.2-3,7.4c-2,1.9-4.6,3-7.5,3s-5.3-1.1-7.4-3l-2.2-3.2c-0.6-1.4-0.9-2.6-0.9-4.2
		s0.3-2.9,0.9-4.2c0.5-1.3,1.3-2.2,2.2-3.2c1.9-1.9,4.5-3,7.4-3s5.3,1.1,7.5,3C20.4,5.7,21.5,8.1,21.5,11z"/>
	<path class="st3" d="M17.3,12.7v2.5c0.3,0.3,0.3,0.6,0,1h-5.6h-0.1c-0.8-0.5-1.6-0.5-2.3,0l-3.6,0.1c-0.2-0.3-0.2-0.7,0-1.1
		c-0.1-1.6,0.1-2.9,0.4-4.4V7.3H5.8C5.3,6.1,5.3,5.1,5.8,4l5.5-0.1c0.5,1.3,0.5,2.2,0,3.3L11,7.3v0.4l0.2,0.1L11,8.1l0.1,0.6v0.7v1
		l3.8-0.5c0.9,0.1,1.5,0.6,1.8,1.3L17.3,12.7"/>
	<path class="st4" d="M16.7,11.1c-0.5-0.7-1.1-1.2-1.8-1.3l-3.8,0.4v-1V8.7L11,8.1l0.2-0.3L11,7.7V7.3l0.3-0.1c0.5-1.1,0.5-2,0-3.3
		L5.8,4c-0.5,1.1-0.5,2.1,0,3.3H6v3.5c-0.3,1.5-0.5,2.8-0.4,4.4c-0.2,0.4-0.2,0.8,0,1.1l3.6-0.1c0.9-0.5,1.7-0.5,2.3,0h0.1h5.6
		c0.3-0.4,0.3-0.7,0-1v-2.5L16.7,11.1z"/>
</g>
</svg>
