<?xml version="1.0" encoding="utf-8"?>
<!-- Generator: Adobe Illustrator 22.0.1, SVG Export Plug-In . SVG Version: 6.00 Build 0)  -->
<svg version="1.1" id="Layer_1" xmlns:author="http://www.sothink.com"
	 xmlns="http://www.w3.org/2000/svg" xmlns:xlink="http://www.w3.org/1999/xlink" x="0px" y="0px" viewBox="0 0 22 22"
	 style="enable-background:new 0 0 22 22;" xml:space="preserve">
<style type="text/css">
	.st0{fill:#FE0000;}
	.st1{fill:#E3E3E3;}
	.st2{fill:none;stroke:#B20000;stroke-width:0.5;stroke-linecap:round;stroke-linejoin:round;stroke-miterlimit:3;}
	.st3{fill:#B3CB20;}
	
		.st4{fill:none;stroke:#000000;stroke-width:5.000000e-02;stroke-linecap:round;stroke-linejoin:round;stroke-miterlimit:3;stroke-opacity:0.502;}
</style>
<g>
	<path class="st0" d="M21.6,11c0,2.9-1.1,5.3-3.1,7.4c-2.1,2-4.5,3.1-7.5,3.1s-5.4-1.1-7.4-3.1l-2.3-3.3C0.7,14,0.4,12.5,0.4,11
		s0.3-3,0.9-4.2c0.5-1.2,1.2-2.3,2.3-3.3c2-2,4.5-3.1,7.4-3.1s5.4,1.1,7.5,3.1C20.5,5.6,21.6,8,21.6,11 M17.4,4.6
		c-1.8-1.8-4-2.7-6.5-2.7c-2.5,0-4.5,0.9-6.3,2.7s-2.8,4-2.8,6.4c0,2.6,1,4.6,2.8,6.4s3.9,2.7,6.3,2.7c2.6,0,4.7-0.9,6.5-2.7
		s2.7-3.9,2.7-6.4C20.1,8.5,19.3,6.4,17.4,4.6"/>
	<path class="st1" d="M20.1,11c0,2.6-0.9,4.6-2.7,6.4s-4,2.7-6.5,2.7c-2.5,0-4.5-0.9-6.3-2.7S1.8,13.6,1.8,11c0-2.5,1-4.6,2.8-6.4
		s3.9-2.7,6.3-2.7c2.6,0,4.7,0.9,6.5,2.7S20.1,8.5,20.1,11"/>
	<path class="st2" d="M21.6,11c0,2.9-1.1,5.3-3.1,7.4c-2.1,2-4.5,3.1-7.5,3.1s-5.4-1.1-7.4-3.1l-2.3-3.3C0.7,14,0.4,12.5,0.4,11
		s0.3-3,0.9-4.2c0.5-1.2,1.2-2.3,2.3-3.3c2-2,4.5-3.1,7.4-3.1s5.4,1.1,7.5,3.1C20.5,5.6,21.6,8,21.6,11z"/>
	<path class="st3" d="M17.3,12.6v2.6c0.3,0.3,0.3,0.6,0,1h-5.7h-0.1c-0.8-0.5-1.5-0.5-2.4,0l-3.6,0.1c-0.2-0.3-0.2-0.7,0-1.1
		c-0.1-1.5,0.1-3,0.4-4.4V7.3H5.7C5.2,6.2,5.2,5.1,5.7,4l5.6-0.1c0.5,1.2,0.5,2.3,0,3.4L11,7.3v0.4l0.2,0.1L11,8l0.1,0.6v0.7v1
		l3.8-0.4c0.9,0.1,1.4,0.6,1.9,1.2L17.3,12.6"/>
	<path class="st4" d="M16.8,11.1c-0.5-0.7-1.1-1.2-1.9-1.2l-3.8,0.4v-1V8.6L11,8l0.2-0.3L11,7.6V7.3l0.3-0.1c0.5-1.1,0.5-2.1,0-3.4
		L5.7,4c-0.5,1.1-0.5,2.2,0,3.4H6v3.6c-0.3,1.4-0.5,2.9-0.4,4.4c-0.2,0.4-0.2,0.8,0,1.1l3.6-0.1c0.9-0.5,1.6-0.5,2.4,0h0.1h5.7
		c0.3-0.4,0.3-0.7,0-1v-2.6L16.8,11.1z"/>
</g>
</svg>
