<svg id="Layer_1" data-name="Layer 1" xmlns="http://www.w3.org/2000/svg" viewBox="0 0 22 21.94"><defs><style>.cls-1{fill:#555;}.cls-2{fill:#e2e2e2;}.cls-3{fill:#404040;}</style></defs><title>Neutral_square</title><path class="cls-1" d="M21.94,22H.06A.31.31,0,0,1,0,21.81V.34C0,.23,0,.12.06,0H21.94A.31.31,0,0,1,22,.19V21.66C22,21.77,22,21.88,21.94,22Z" transform="translate(0 -0.03)"/><path d="M21,11.07V21c0,.21,0,.21-.2.21H.94c-.24,0-.21,0-.21-.21V1.15C.73.91.7.94,1,.94H20.89C21,.93,21,1,21,1v10Z" transform="translate(0 -0.03)"/><path class="cls-2" d="M3.9,17.79l-1.08-.54a.29.29,0,0,1-.12-.1L1.64,16a.25.25,0,0,1-.07-.19V2c0-.12,0-.13.14-.13H19.94c.08,0,.14,0,.14.11V7.33a.39.39,0,0,1,0,.09L19.5,6.31A1.46,1.46,0,0,1,19.2,6a2.42,2.42,0,0,0-1.85-.84,3.76,3.76,0,0,0-1.24.21,6.55,6.55,0,0,0-2.26,1.19,6,6,0,0,0-1.37,1.67,8.31,8.31,0,0,0-1,3.18,12.38,12.38,0,0,0-.06,1.36,4.53,4.53,0,0,1-1.4,3.31,6.8,6.8,0,0,1-1.82,1.21,12.19,12.19,0,0,1-1.42.54,1.13,1.13,0,0,1-.36.06c-.79,0-1.58-.05-2.38-.06A.58.58,0,0,1,3.9,17.79Z" transform="translate(0 -0.03)"/><path class="cls-3" d="M3.9,17.79c.6,0,1.21,0,1.81,0a4,4,0,0,0,1.86-.3A7.81,7.81,0,0,0,10,16.11a4.43,4.43,0,0,0,1.46-3.37,10.64,10.64,0,0,1,.41-3.08,6.07,6.07,0,0,1,3.82-4.18,4.47,4.47,0,0,1,1.76-.36A2.47,2.47,0,0,1,19.5,6.31a5,5,0,0,0-1.72-.26,2.92,2.92,0,0,0-2.16,1,5.83,5.83,0,0,0-1.16,2.2,6.73,6.73,0,0,0-.13.9,12.34,12.34,0,0,1-.85,3.05,11.77,11.77,0,0,1-1.55,2.6l-.47.57a2.55,2.55,0,0,1-.65.48A13.36,13.36,0,0,1,8.1,18.14a6,6,0,0,1-2.31.31A3.91,3.91,0,0,1,3.9,17.79Z" transform="translate(0 -0.03)"/><path class="cls-2" d="M16.81,13.87l-.09,0-.11-.05c-.19-.09-.43-.13-.56-.28a1.78,1.78,0,0,1-.27-.61.15.15,0,0,1,0-.13c.08-.21.16-.42.23-.64a.16.16,0,0,1,.11-.1l.61-.22a.16.16,0,0,1,.15,0h0c.66.26.66.26.92.95a.15.15,0,0,1,0,.13l-.28.56s0,0,0,0C17.29,13.65,17,13.73,16.81,13.87Z" transform="translate(0 -0.03)"/><path d="M6.08,10.8c.11,0,.22.09.35.12a.79.79,0,0,1,.56.52.75.75,0,0,1,0,.78,1.19,1.19,0,0,1-.53.51.71.71,0,0,1-.68,0,1,1,0,0,1-.62-.65.63.63,0,0,1,0-.52c0-.07,0-.15.09-.23s0-.25.17-.34A1.16,1.16,0,0,1,6.08,10.8Z" transform="translate(0 -0.03)"/></svg>