<svg id="Layer_2" data-name="Layer 2" xmlns="http://www.w3.org/2000/svg" viewBox="0 0 252 252"><defs><style>.cls-1{fill:#efc95b;}.cls-2{fill:#e3c967;}.cls-3{fill:#f86d34;}.cls-4{fill:#913e1d;}.cls-5{fill:#843618;}.cls-6{fill:#6f2b11;}.cls-7{fill:#d38b3d;}.cls-8{fill:#bcf237;}.cls-9{fill:#87d350;}.cls-10{fill:#85391a;}.cls-11{fill:#853a1a;}.cls-12{fill:#cda146;}.cls-13{fill:#eaab41;}.cls-14{fill:#713116;}.cls-15{fill:#8ad34d;}.cls-16{fill:#503424;}.cls-17{fill:#cdf233;}.cls-18{fill:#edbe4f;}.cls-19{fill:#72ab5c;}.cls-20{fill:#8cb3ba;}.cls-21{fill:#295550;}.cls-22{fill:#883e1f;}.cls-23{fill:#8d3b1a;}.cls-24{fill:#7b3214;}.cls-25{fill:#793114;}.cls-26{fill:#3f8498;}.cls-27{fill:#f56b33;}.cls-28{fill:#035a5a;}.cls-29{fill:#fb6e35;}.cls-30{fill:#407f90;}.cls-31{fill:#6e351a;}.cls-32{fill:#b64f26;}.cls-33{fill:#bb5227;}.cls-34{fill:#fbf48e;}</style></defs><title>Pods</title><path class="cls-1" d="M180.81,42l12.88.66c6.39,9.47,6.39,18.49-1.88,26.93a15.76,15.76,0,0,1-10.38,2.58c-9.05-2.25-18.45-3.91-24.26-12.51a14.49,14.49,0,0,0,.37-3.6C162.85,47.32,172.32,45.47,180.81,42Z"/><path class="cls-2" d="M157.17,59.66c8.13,2.06,16.7,3,23.13,9.29-8.29,15.48-18.45,11.07-29,2.73A10.85,10.85,0,0,1,153,60.29,8.68,8.68,0,0,1,157.17,59.66Z"/><path class="cls-3" d="M122,105.89a30,30,0,0,0,4.13-.08c16.38-4.41,33.07-2,49.64-2.38,8-.93,15.27,2.55,22.88,4,8.95,1,18.2-1.94,26.93,2l5.45,8.86c-1.07,17.59-14.76,20-27.37,20.21-51,.7-102,1-153-.19-12.67-.3-28.55-.5-29.7-20,5.17-13.6,16.82-9,26.68-9.53C72.05,99.09,97,103.25,122,105.89Z"/><path class="cls-4" d="M20.91,118.27c6.13,11.36,15.83,14.13,28.29,14q76.74-.78,153.49,0c12.46.12,22.16-2.65,28.3-14,11.17,24.95-14.45,19.33-23.12,27.8-7.33,6.08-15.39,4.42-23.49,2.27A54.9,54.9,0,0,0,161.23,150,46.17,46.17,0,0,1,141,150a56.66,56.66,0,0,0-22.73-1.92c-7.68,2-15.4,3.48-23.35,1.73a50.69,50.69,0,0,0-29.6.32C58,151.4,51,151.56,45.23,145.8,36.85,136.86,9.72,144.49,20.91,118.27Z"/><path class="cls-5" d="M58.27,186.57q-4.37-13.48-8.72-27c8-5.23,16-3.39,24-.32,6.64,2.9,13,4.42,17.57-3.44a15.68,15.68,0,0,1,4.77-3.8c10.56-3.93,17.51,1.86,24,8.86,7.18,3.19,12.62,1,16.74-5.42a15.78,15.78,0,0,1,5-3.68c5.31-1.48,10.52-1.66,15.57.9,7.7,11.94,18.61,9.48,29.64,6.52,5.87-.45,11.38.25,15.72,4.78q-2.4,9-4.79,18c-7,6.75-14.95,4.17-22.82,2.37a142.13,142.13,0,0,1-16.26-2.84c-7.28-2.37-14.52-1.85-21.75.37a96.29,96.29,0,0,1-20.11,1.73c-6.74.16-13.48-.06-20.21-.11-4.24,0-8.48-.2-12.68-.44-6.84-3.08-7.45,4.11-10.89,6.69C67.51,191.59,62.5,190.84,58.27,186.57Z"/><path class="cls-6" d="M58.27,186.57l17.43-.06c3.65,1.77,5.54,5.75,9.29,7.32,4.52,1.33,9,.73,13.55-.16,5.86-1.56,11.74-2.64,17.79-1.43a39,39,0,0,0,23.88-.06c6.43-1.32,12.62.15,18.82,1.51,6.45,1.06,12.65-.31,18.84-1.95,5.8-.92,11.3-.62,15.71,3.95-.71,14-10.66,14.05-20.89,14-30-.09-60-.76-89.92.25C65.29,210.55,57.69,203.54,58.27,186.57Z"/><path class="cls-7" d="M198.44,109.09,175.65,109c-6.41-10.35,3-18.06,4.46-27.11,1.68-5.27,5.49-9.07,9.06-13.05,5.25-8.08,5.26-17.07,4.52-26.19,14.95,7.49,9.38,21.11,7.57,31.75s-5.53,20.68-3.92,31.64c1.78.12,2.54.61,2.27,1.47C199.29,108.57,198.91,109.09,198.44,109.09Z"/><path class="cls-8" d="M72.21,51.06C74.1,59,99.53,49.34,85.59,69Q83,71.19,80.3,73.24C70.22,79,59.83,82.76,48.13,78.38c-12.82-10.59-4.32-12.67,5.65-14.16A43.79,43.79,0,0,1,72.21,51.06Z"/><path class="cls-9" d="M80.61,69.07l5,0c-1.46,5.32.83,9.46,4.18,13.28-5.32,9.4-11.73,17.91-20.13,24.82-6.69-.46-13.68,2.11-20-2-1-10,11.12-7.17,13.64-13.77C63.74,79.8,72.43,74.63,80.61,69.07Z"/><path class="cls-10" d="M202.61,164l-18.81-.27c-3.25-1.62-8-.82-9.26-5.69,1-7.18,5.73-12,10.62-16.79,6.89,4.78,14.77,4.94,22.71,4.83A30.34,30.34,0,0,1,202.61,164Z"/><path class="cls-11" d="M71.35,164.08c-6.26-6.41-15.16,0-21.8-4.48q-2.16-6.9-4.33-13.8l21.3.07c6.66,1.68,8.58,6.47,8.32,12.69A10.73,10.73,0,0,1,71.35,164.08Z"/><path class="cls-12" d="M72.21,51.06C70.13,61.14,61.85,62.54,53.78,64.22c-7.2-14.51,2.79-16.7,13.28-18.52C68.78,47.49,70.49,49.28,72.21,51.06Z"/><path class="cls-13" d="M49.64,105.14l23,0c16.19-10.38,32.37-8.67,48.54,0l.76.74c-24.52,8-49.55,2.69-74.37,2.87A7.56,7.56,0,0,1,49.64,105.14Z"/><path class="cls-14" d="M193.58,195.69l-17.27.08a9.68,9.68,0,0,1-4-5.33,13.6,13.6,0,0,1,3.25-12.7,37.56,37.56,0,0,0,22.3,4.26Q195.7,188.84,193.58,195.69Z"/><path class="cls-15" d="M80.61,69.07,63.28,91.37c.64-11-12.9-5.39-15.15-13C60.17,79.51,69.18,70.08,80.61,69.07Z"/><path class="cls-16" d="M198.44,109.09a22.2,22.2,0,0,0-1.1-3c9.61-.62,19.56-4.11,28.2,3.37Z"/><path class="cls-17" d="M121.2,105.14l-48.55,0C68.4,90,80.84,87.5,89.77,82.32,108.87,78,115.72,90.64,121.2,105.14Z"/><path class="cls-13" d="M184.73,82.45q-4.54,13.29-9.08,26.57c-16.52-1.08-33.46,4.45-49.55-3.21q4.72-8.84,9.48-17.66l8.52-9.67c2.33,1.84,3.5,4.4,4.47,7.06,5.83,8.43,12.55,4.68,19.21,1.36C173,83.89,177.86,79.21,184.73,82.45Z"/><path class="cls-18" d="M184.73,82.45l-14.25,9.8c-8.81-.9-19,6.41-26.11-4.55l-.27-9.22L153,68.69c9,7.3,18.16,7.08,27.34.26l8.87-.1Z"/><path class="cls-19" d="M72.18,158.23q-2.84-6.18-5.66-12.36c9.16-7.41,18.31-6.89,27.45,0,3,3,3,6,.19,9.13a8.2,8.2,0,0,0-.7,3.24C86.35,165.72,79.25,165,72.18,158.23Z"/><path class="cls-20" d="M140.12,155a6,6,0,0,0-1.47,3.15c-4.64,6.7-10.84,6-17.39,3.66-7-5.54-9.46-12.2-5-20.53,8.08,1,17.28-3.75,23.94,4.61A7.39,7.39,0,0,1,140.12,155Z"/><path class="cls-21" d="M185.16,141.25c2.19,8.69-3.15,13.47-9.29,17.82-6.3,5.06-10.81,2.07-14.81-3.27-1.59-3.44-1.64-6.75.84-9.85C168.36,138,177.26,142.11,185.16,141.25Z"/><path class="cls-22" d="M116.31,141.29c-1.5,6.56.26,12.2,4.75,17.09.68,3.82-.79,6.93-3.26,9.7-6.5-6.85-11.15-17.06-23.64-13-.06-3-.13-6.09-.19-9.13C101.8,146.21,109.55,146.13,116.31,141.29Z"/><path class="cls-23" d="M161.9,146l-.3,8.19-2.76,1.26L140.12,155c0-3,.08-6.07.13-9.11Z"/><path class="cls-24" d="M157.63,200.26c-5.68-3-11.56-5.27-18.18-4.56a11.81,11.81,0,0,1-3.47-5.31c-.88-4.51,0-8.55,3.22-11.95,6-7.32,12.19-7.4,18.56-.47a17.34,17.34,0,0,1,4.5,9.39A16.1,16.1,0,0,1,157.63,200.26Z"/><path class="cls-25" d="M116.45,195.8c-6.52-.87-12.21,1.63-17.83,4.38A17.72,17.72,0,0,1,94,192.44c-1-4.91-2.8-9.83-.08-14.76l24,.4c3,3.77,3.48,8,2.43,12.57A10.69,10.69,0,0,1,116.45,195.8Z"/><path class="cls-26" d="M117.21,191.09q.38-6.51.76-13l21.23.36q-.45,5.9-.91,11.78C131.55,197.58,124.46,196.41,117.21,191.09Z"/><path class="cls-27" d="M158.84,155.4a3.33,3.33,0,0,0,2.76-1.26c4.13,3.44,8.29,6.79,14.26,4.93,3.21.62,6.78.6,7.94,4.67C173.29,167.5,160.62,177.73,158.84,155.4Z"/><path class="cls-28" d="M158,186.54c-.08-2.86-.17-5.72-.25-8.58l17.77-.22q-.06,6.62-.13,13.24C167.64,197.17,162.17,194.42,158,186.54Z"/><path class="cls-29" d="M117.8,168.08c-.91-3.91-.53-7.38,3.27-9.7l17.59-.22C138.06,174.83,125.1,165.49,117.8,168.08Z"/><path class="cls-30" d="M94,177.68,98,190.54c-3.69,4.46-8.21,4.66-13.19,2.63-4.52-4.36-8.84-8.78-3.94-15.53Z"/><path class="cls-29" d="M72.18,158.23q10.63,0,21.29.06c-3.14,18.13-13.76,7.62-22.12,5.79Q71.76,161.15,72.18,158.23Z"/><path class="cls-31" d="M80.88,177.64l4,13.45c.59,3.92-1.53,6.6-4.11,9.08-5.54-3.13-4.4-8.73-5.08-13.66C73.64,181.34,73.07,177,80.88,177.64Z"/><path class="cls-32" d="M117.21,191.09l21.09-.87q.57,2.75,1.15,5.48c-7.64,6.9-15.3,6.78-23,.1C116.7,194.23,117,192.66,117.21,191.09Z"/><path class="cls-33" d="M158,186.54c5.26,3.61,10.94,5.55,17.4,4.44.29,1.6.59,3.19.89,4.79-5,6.46-12.23,3.91-18.67,4.49Q157.81,193.41,158,186.54Z"/><path class="cls-33" d="M80.79,200.17c-.32-3.8.42-7.1,4.11-9.07L98,190.54c.2,3.22.41,6.43.61,9.64Z"/><path class="cls-34" d="M144.37,87.7c7.69,7.38,18.06-.68,26.12,4.54C151.35,98.74,146.2,97.84,144.37,87.7Z"/></svg>