<?xml version="1.0" encoding="utf-8"?>
<!-- Generator: Adobe Illustrator 22.0.1, SVG Export Plug-In . SVG Version: 6.00 Build 0)  -->
<svg version="1.1" id="Layer_1" xmlns:author="http://www.sothink.com"
	 xmlns="http://www.w3.org/2000/svg" xmlns:xlink="http://www.w3.org/1999/xlink" x="0px" y="0px" viewBox="0 0 22 22"
	 style="enable-background:new 0 0 22 22;" xml:space="preserve">
<style type="text/css">
	.st0{fill:#FB4E04;}
	.st1{fill:#FF9900;}
	
		.st2{fill:none;stroke:#000000;stroke-width:0.2;stroke-linecap:round;stroke-linejoin:round;stroke-miterlimit:3;stroke-opacity:0.302;}
</style>
<g>
	<path class="st0" d="M21.5,12.5l-4.7,5.9l-0.6,0.4c-0.4,0-0.6-0.1-0.8-0.4l-0.2-0.6v-2.6h-3.4L11,15l-0.3-0.6V8L11,7.3L11.8,7h3.4
		V4.5c0-0.3,0.1-0.5,0.2-0.7l0.8-0.3c0.3,0,0.5,0.1,0.6,0.3l4.7,6l0.5,1.4L21.5,12.5"/>
	<path class="st1" d="M8.5,6.2L8,7C7.8,7.2,7.7,7.5,7.7,8v6.2l0.2,1L8.5,16V16l0.2,0.2c0.4,0.4,1,0.6,1.8,0.6l-5.3,3.7l1.4-4.7
		L0,16.3l5.3-5.1L5.2,11l0.1-0.1L0,5.7l6.7,0.6L5.2,1.5l5.3,3.8c-0.8,0-1.4,0.2-1.8,0.6L8.5,6.2L8.5,6.2"/>
	<path class="st2" d="M21.5,12.5l-4.7,5.9l-0.6,0.4c-0.4,0-0.6-0.1-0.8-0.4l-0.2-0.6v-2.6h-3.4L11,15l-0.3-0.6V8L11,7.3L11.8,7h3.4
		V4.5c0-0.3,0.1-0.5,0.2-0.7l0.8-0.3c0.3,0,0.5,0.1,0.6,0.3l4.7,6l0.5,1.4L21.5,12.5 M8.5,6.2L8,7C7.8,7.2,7.7,7.5,7.7,8v6.2l0.2,1
		L8.5,16V16l0.2,0.2c0.4,0.4,1,0.6,1.8,0.6l-5.3,3.7l1.4-4.7L0,16.3l5.3-5.1L5.2,11l0.1-0.1L0,5.7l6.7,0.6L5.2,1.5l5.3,3.8
		c-0.8,0-1.4,0.2-1.8,0.6L8.5,6.2L8.5,6.2"/>
</g>
</svg>
