<?xml version="1.0" encoding="utf-8"?>
<!-- Generator: Adobe Illustrator 22.0.1, SVG Export Plug-In . SVG Version: 6.00 Build 0)  -->
<svg version="1.1" id="Layer_1" xmlns:author="http://www.sothink.com"
	 xmlns="http://www.w3.org/2000/svg" xmlns:xlink="http://www.w3.org/1999/xlink" x="0px" y="0px" viewBox="0 0 22 22"
	 style="enable-background:new 0 0 22 22;" xml:space="preserve">
<style type="text/css">
	.st0{fill:#FF7426;}
	
		.st1{fill:none;stroke:#000000;stroke-width:5.000000e-02;stroke-linecap:round;stroke-linejoin:round;stroke-miterlimit:3;stroke-opacity:0.502;}
</style>
<g>
	<path class="st0" d="M21.5,12l-6.6,6.5C14.7,18.8,14.4,19,14,19c-0.4,0-0.7-0.1-1-0.4l-0.3-0.9V15H1.5c-0.4,0-0.8-0.1-1-0.4
		l-0.4-0.9V8.8l0.4-0.9c0.2-0.3,0.6-0.4,1-0.4h11.2V4.4c0-0.4,0.1-0.7,0.3-1C13.3,3.2,13.6,3,14,3c0.4,0,0.7,0.1,0.9,0.3l6.6,6.7
		l0.4,1L21.5,12"/>
	<path class="st1" d="M21.9,11.1l-0.4-1l-6.6-6.7C14.7,3.2,14.4,3,14,3c-0.4,0-0.7,0.1-1,0.3c-0.2,0.3-0.3,0.6-0.3,1v3.1H1.5
		c-0.4,0-0.8,0.1-1,0.4L0.1,8.8v4.9l0.4,0.9c0.2,0.3,0.6,0.4,1,0.4h11.2v2.7l0.3,0.9c0.3,0.3,0.6,0.4,1,0.4c0.4,0,0.7-0.1,0.9-0.4
		l6.6-6.5L21.9,11.1z"/>
</g>
</svg>
