<?xml version="1.0" encoding="utf-8"?>
<!-- Generator: Adobe Illustrator 22.0.1, SVG Export Plug-In . SVG Version: 6.00 Build 0)  -->
<svg version="1.1" id="Layer_1" xmlns:author="http://www.sothink.com"
	 xmlns="http://www.w3.org/2000/svg" xmlns:xlink="http://www.w3.org/1999/xlink" x="0px" y="0px" viewBox="0 0 22 22"
	 style="enable-background:new 0 0 22 22;" xml:space="preserve">
<style type="text/css">
	.st0{fill:#C726FF;}
	
		.st1{fill:none;stroke:#000000;stroke-width:5.000000e-02;stroke-linecap:round;stroke-linejoin:round;stroke-miterlimit:3;stroke-opacity:0.502;}
</style>
<g>
	<path class="st0" d="M0.4,12L0,11.1l0.4-1l6.7-6.8C7.3,3.1,7.5,3,8,3l1,0.3l0.3,1v3.1h11.2l1,0.4L22,8.8v4.9l-0.4,0.9l-1,0.4H9.3
		v2.7L9,18.6L8,19c-0.4,0-0.7-0.1-0.9-0.4l-6.5-6.3L0.4,12"/>
	<path class="st1" d="M0.4,12L0,11.1l0.4-1l6.7-6.8C7.3,3.1,7.5,3,8,3l1,0.3l0.3,1v3.1h11.2l1,0.4L22,8.8v4.9l-0.4,0.9l-1,0.4H9.3
		v2.7L9,18.6L8,19c-0.4,0-0.7-0.1-0.9-0.4l-6.5-6.3"/>
</g>
</svg>
