<svg id="Layer_1" data-name="Layer 1" xmlns="http://www.w3.org/2000/svg" viewBox="0 0 12.91 14.84"><defs><style>.cls-1{fill:#eba80e;}.cls-2{fill:#f0c153;}.cls-3{fill:#58382b;}.cls-4{fill:#9f654b;}.cls-5{fill:#ba850c;}.cls-6{fill:#bb850c;}</style></defs><title>Spell Damage</title><path class="cls-1" d="M17.21,9.17c.57.65,0,.86-.45,1a10.55,10.55,0,0,1-2.09.39,1.32,1.32,0,0,0-1.25,1c-.24.63-.56,1.24-.84,1.85-.47.36-.83.17-1.09-.25a4.89,4.89,0,0,0-.85-1.21c-.25-.12-.39-.36-.59-.53a.88.88,0,0,0-.62-.22,2.92,2.92,0,0,0-1.61-.46c-.51,0-.74-.22-.81-.69a.48.48,0,0,1,.1-.17,3.85,3.85,0,0,0,1.25-5.1c-.22-.51-.15-1.11.73-.82.48,1.12,1.63,1.4,2.54,2,.22.13.5-.09.7-.27.38-.34.84-.59,1.24-.91a.59.59,0,0,1,.73,0,.58.58,0,0,1,.26.68c-.06.22,0,.45-.08.67-.28,1.61-.29,1.62,1.11,2.51C16.09,8.83,16.51,9.36,17.21,9.17Z" transform="translate(-4.55 -3.58)"/><path class="cls-2" d="M17.21,9.17a.51.51,0,0,1-.85.27l-.42-.25c-2.18-1.3-2.18-1.3-1.8-3.81,0-.12,0-.25,0-.45A5.11,5.11,0,0,0,12.47,6a1,1,0,0,1-1.33.06c-.59-.41-1.2-.77-1.81-1.15-.41-.26-.64-.56-.24-1,.66.41,1.34.79,2,1.25a.82.82,0,0,0,1.19,0c.57-.48,1.21-.87,1.81-1.32.27-.2.56-.39.88-.21a.62.62,0,0,1,.21.86c-.9,2.22-.2,3.73,2,4.59C17.18,9.11,17.19,9.15,17.21,9.17Z" transform="translate(-4.55 -3.58)"/><path class="cls-3" d="M10.34,11l.44.64c.18.28.07.47-.21.59Q8.49,15,6.39,17.83c-.26.34-.52.72-1,.55s-.85-.37-.81-.95c1.23-.76,1.87-2,2.72-3.13.67-.87,1.29-1.79,2-2.66A1.56,1.56,0,0,1,10.34,11Z" transform="translate(-4.55 -3.58)"/><path class="cls-4" d="M10.34,11c-1.35,1.57-2.44,3.34-3.71,5-.54.68-1,1.6-2.08,1.51C5.7,15.5,7.17,13.8,8.42,12c.17-.24.68-.45.28-.89a.93.93,0,0,1,1.1-.28Z" transform="translate(-4.55 -3.58)"/><path class="cls-5" d="M10.57,12.18l.21-.59c.65.54.71,1.69,1.8,1.79-.27.77-.71.63-1.11.15A12.67,12.67,0,0,1,10.57,12.18Z" transform="translate(-4.55 -3.58)"/><path class="cls-6" d="M9.8,10.78l-1.1.28c-.44-.05-.89-.08-1.32-.17S6.66,10.51,7,10C7.81,10.74,8.9,10.43,9.8,10.78Z" transform="translate(-4.55 -3.58)"/></svg>