<?xml version="1.0" encoding="utf-8"?>
<!-- Generator: Adobe Illustrator 22.0.1, SVG Export Plug-In . SVG Version: 6.00 Build 0)  -->
<svg version="1.1" id="Layer_1" xmlns:author="http://www.sothink.com"
	 xmlns="http://www.w3.org/2000/svg" xmlns:xlink="http://www.w3.org/1999/xlink" x="0px" y="0px" viewBox="0 0 22 22"
	 style="enable-background:new 0 0 22 22;" xml:space="preserve">
<style type="text/css">
	.st0{fill:#C60000;}
	.st1{fill:#E3E3E3;}
	.st2{fill:#FF1E1E;}
	.st3{fill:none;stroke:#FF1E1E;stroke-width:0.5;stroke-linecap:round;stroke-linejoin:round;stroke-miterlimit:3;}
</style>
<g>
	<path class="st0" d="M21.4,11c0,2.8-1,5.2-3,7.3c-2.1,2-4.5,3-7.4,3c-2.8,0-5.3-1-7.4-3c-2-2.1-3-4.5-3-7.3s1-5.2,3-7.4
		c2.1-2,4.6-2.9,7.4-2.9c2.9,0,5.3,0.9,7.4,2.9C20.4,5.8,21.4,8.2,21.4,11 M17.4,4.6C15.6,2.9,13.4,2,10.9,2C8.5,2,6.4,2.9,4.6,4.6
		C2.8,6.4,1.9,8.5,1.9,11s0.9,4.6,2.7,6.4S8.5,20,10.9,20c2.5,0,4.7-0.8,6.5-2.6c1.8-1.7,2.6-3.8,2.6-6.4C20,8.6,19.1,6.4,17.4,4.6"
		/>
	<path class="st1" d="M20,11c0,2.5-0.8,4.6-2.6,6.4S13.4,20,10.9,20c-2.4,0-4.5-0.8-6.3-2.6c-1.9-1.7-2.7-3.8-2.7-6.4
		c0-2.4,0.9-4.6,2.7-6.4S8.5,2,10.9,2c2.5,0,4.7,0.8,6.5,2.6S20,8.6,20,11 M7.6,6.3c-1.4,0-2.4,0.9-3,3c-0.7,2.2,1.3,5.1,6.3,8.8
		c5-3.7,7-6.6,6.4-8.8c-0.7-2.1-1.7-3-3.1-3c-1.1,0.1-2.2,0.9-3.2,2.4C10,7.3,8.8,6.4,7.6,6.3"/>
	<path class="st2" d="M11,8.8c0.9-1.5,2.1-2.3,3.2-2.4c1.4,0,2.4,0.9,3.1,3c0.7,2.2-1.4,5.1-6.4,8.8c-5-3.7-7-6.6-6.3-8.8
		c0.6-2.1,1.6-3,3-3C8.8,6.4,10,7.3,11,8.8"/>
	<path class="st3" d="M21.4,11c0,2.8-1,5.2-3,7.3c-2.1,2-4.5,3-7.4,3c-2.8,0-5.3-1-7.4-3c-2-2.1-3-4.5-3-7.3s1-5.2,3-7.4
		c2.1-2,4.6-2.9,7.4-2.9c2.9,0,5.3,0.9,7.4,2.9C20.4,5.8,21.4,8.2,21.4,11z"/>
</g>
</svg>
