<svg id="Layer_1" data-name="Layer 1" xmlns="http://www.w3.org/2000/svg" viewBox="0 0 14.56 14.54"><defs><style>.cls-1{fill:#e5eff0;}.cls-2{fill:#83b6bd;}.cls-3{fill:#67979f;}.cls-4{fill:#6898a1;}.cls-5{fill:#9e644b;}.cls-6{fill:#fbca38;}.cls-7{fill:#d5aa34;}</style></defs><title>Weapon Damage</title><path class="cls-1" d="M18.08,3.89c.43.34.05.68-.06,1a15.88,15.88,0,0,1-3.69,5.78c-1.38,1.42-2.79,2.8-4.18,4.2-.6.1-.81-.28-.92-.77a4,4,0,0,0,.12-1.65,1.27,1.27,0,0,1,.06-.28,30.9,30.9,0,0,1,3.87-4c1.19-1.1,2.34-2.23,3.49-3.36A3.75,3.75,0,0,1,18.08,3.89Z" transform="translate(-3.72 -3.73)"/><path class="cls-2" d="M18.08,3.89c-2.72,2.92-5.69,5.59-8.52,8.4a4.5,4.5,0,0,1-1.64.48c-.44-.1-.89-.2-.81-.81,2-1.91,3.77-4.12,6-5.8a14.21,14.21,0,0,1,4.33-2.3C17.67,3.8,17.88,3.59,18.08,3.89Z" transform="translate(-3.72 -3.73)"/><path class="cls-3" d="M7.11,12l.78.65c.48,0,.73.36,1,.63a1.11,1.11,0,0,1,.44.85c.23.29.41.62.78.75a2,2,0,0,1,.25,1.84L8.74,14.84a2.57,2.57,0,0,1-1.6-1.6l-1.67-1.7A1.39,1.39,0,0,1,7.11,12Z" transform="translate(-3.72 -3.73)"/><path class="cls-4" d="M6.73,16.7c0,.74-.2,1.42-1.07,1.56-.58.1-1.64-.74-1.86-1.44a1,1,0,0,1,.72-1.41c.48,0,1-.26,1.43,0S6.81,16.06,6.73,16.7Z" transform="translate(-3.72 -3.73)"/><path class="cls-5" d="M5.92,15.72a1.88,1.88,0,0,0-1.4-.31,6,6,0,0,0,2.62-2.17l1.6,1.6-.62.4C7.27,14.85,6.67,15.61,5.92,15.72Z" transform="translate(-3.72 -3.73)"/><path class="cls-5" d="M5.92,15.72a2.8,2.8,0,0,0,.43-.41c.57-.82,1.16-.83,1.77-.07A6.42,6.42,0,0,1,6.73,16.7Z" transform="translate(-3.72 -3.73)"/><path class="cls-6" d="M9.37,14.09l-.65-.64c-.09-.63.08-1.06.83-1A1.17,1.17,0,0,1,9.37,14.09Z" transform="translate(-3.72 -3.73)"/><path class="cls-7" d="M9.55,12.45c-.45.19-.61.62-.83,1l-.83-.84a1.64,1.64,0,0,1,1.67-.32A.92.92,0,0,1,9.55,12.45Z" transform="translate(-3.72 -3.73)"/></svg>