<?xml version="1.0" encoding="utf-8"?>
<!-- Generator: Adobe Illustrator 22.0.1, SVG Export Plug-In . SVG Version: 6.00 Build 0)  -->
<svg version="1.1" id="Layer_1" xmlns:author="http://www.sothink.com"
	 xmlns="http://www.w3.org/2000/svg" xmlns:xlink="http://www.w3.org/1999/xlink" x="0px" y="0px" viewBox="0 0 22 22"
	 style="enable-background:new 0 0 22 22;" xml:space="preserve">
<style type="text/css">
	.st0{fill:#210143;}
	.st1{fill:#E3E3E3;}
	.st2{fill:#330066;}
	.st3{fill:none;stroke:#330066;stroke-width:0.5;stroke-linecap:round;stroke-linejoin:round;stroke-miterlimit:3;}
</style>
<g>
	<path class="st0" d="M17.4,4.6c-1.8-1.8-4-2.7-6.5-2.7c-2.5,0-4.6,0.9-6.4,2.7s-2.7,4-2.7,6.4c0,2.6,0.9,4.6,2.7,6.4
		c1.8,1.8,3.9,2.7,6.4,2.7c2.6,0,4.7-0.9,6.5-2.7c1.8-1.8,2.7-3.9,2.7-6.4C20.1,8.5,19.2,6.4,17.4,4.6 M21.5,11c0,2.8-1,5.3-3,7.4
		c-2.1,2-4.6,3-7.5,3s-5.4-1-7.4-3c-2.1-2.1-3.1-4.6-3.1-7.4c0-2.9,1-5.4,3.1-7.4c2-2,4.5-3,7.4-3s5.4,1,7.5,3
		C20.5,5.6,21.5,8.1,21.5,11"/>
	<path class="st1" d="M20.1,11c0,2.6-0.9,4.6-2.7,6.4c-1.8,1.8-4,2.7-6.5,2.7c-2.5,0-4.6-0.9-6.4-2.7c-1.8-1.8-2.7-3.9-2.7-6.4
		c0-2.5,0.9-4.6,2.7-6.4s3.9-2.7,6.4-2.7c2.6,0,4.7,0.9,6.5,2.7C19.2,6.4,20.1,8.5,20.1,11 M9.9,4.9L9.6,6.2l-1,0.2l1,0.1l0.3,1.2
		l0.2-1.2l1-0.1l-1-0.2L9.9,4.9 M7.4,9l0.9,0.2l0.1,0.9l0.2-0.9L9.3,9H8.5L8.3,8.2L8.3,9H7.4 M13.6,5.4c1.1,1,1.8,2.4,1.9,3.9
		c0.1,1.4-0.4,2.7-1.4,4l-0.3,0.4l-1.4,0.9l-2.2,0.6H9.9c-1.4,0-2.7-0.5-3.8-1.3l-1.4-1.9l-0.1-0.2l-0.1-1v-0.2L4.2,10l-0.1,2
		c0.1,1.8,0.9,3.3,2.3,4.6c1,0.9,2.3,1.5,3.6,1.8l1.6,0.1l2.5-0.6l2.4-1.9c1.3-1.4,2-3,1.9-4.9c-0.1-2-0.9-3.6-2.4-4.9l-1.1-0.9
		l-1.5-0.6L12,4.5l1.2,0.7L13.6,5.4 M10.8,10.7l0.5,2.1l0.4-2.1l1.9-0.2l-1.9-0.3L11.3,8l-0.5,2.3L9,10.5L10.8,10.7"/>
	<path class="st2" d="M10.1,6.2l1,0.2l-1,0.1L9.9,7.7L9.6,6.4l-1-0.1l1-0.2l0.3-1.2L10.1,6.2 M8.3,9l0.1-0.9L8.5,9h0.8L8.5,9.2
		l-0.2,0.9L8.3,9.2L7.4,9H8.3 M13.3,5.1L12,4.5l1.2,0.2l1.5,0.6l1.1,0.9c1.4,1.3,2.3,2.9,2.4,4.9c0.1,1.9-0.6,3.5-1.9,4.9L14,17.8
		l-2.5,0.6L10,18.3c-1.3-0.3-2.6-0.9-3.6-1.8c-1.4-1.2-2.2-2.7-2.3-4.6l0.1-2l0.3,0.6v0.2l0.1,1l0.1,0.2l1.4,1.9
		c1,0.9,2.4,1.3,3.8,1.3h0.3l2.2-0.6l1.4-0.9l0.3-0.4c1-1.2,1.5-2.6,1.4-4c-0.1-1.5-0.8-2.8-1.9-3.9L13.3,5.1 M9,10.5l1.8-0.3
		L11.3,8l0.4,2.3l1.9,0.3l-1.9,0.2l-0.4,2.1l-0.5-2.1L9,10.5"/>
	<path class="st3" d="M21.5,11c0,2.8-1,5.3-3,7.4c-2.1,2-4.6,3-7.5,3s-5.4-1-7.4-3c-2.1-2.1-3.1-4.6-3.1-7.4c0-2.9,1-5.4,3.1-7.4
		c2-2,4.5-3,7.4-3s5.4,1,7.5,3C20.5,5.6,21.5,8.1,21.5,11z"/>
</g>
</svg>
