<?xml version="1.0" encoding="utf-8"?>
<!-- Generator: Adobe Illustrator 22.0.1, SVG Export Plug-In . SVG Version: 6.00 Build 0)  -->
<svg version="1.1" id="Layer_1" xmlns:author="http://www.sothink.com"
	 xmlns="http://www.w3.org/2000/svg" xmlns:xlink="http://www.w3.org/1999/xlink" x="0px" y="0px" viewBox="0 0 22 22"
	 style="enable-background:new 0 0 22 22;" xml:space="preserve">
<style type="text/css">
	.st0{fill:#1B431B;}
	.st1{fill:#E3E3E3;}
	.st2{fill:#2B6F2D;}
	.st3{fill:none;stroke:#2B6F2D;stroke-width:0.5;stroke-linecap:round;stroke-linejoin:round;stroke-miterlimit:3;}
</style>
<g>
	<path class="st0" d="M18.5,18.4c-2.1,2-4.6,3.1-7.5,3.1s-5.4-1-7.4-3.1c-2.1-2.1-3.1-4.6-3.1-7.4c0-3,1-5.4,3.1-7.4
		c2-2,4.5-3.1,7.4-3.1s5.4,1,7.5,3.1c2,2,3.1,4.5,3.1,7.4C21.6,13.9,20.5,16.3,18.5,18.4 M20.2,11c0-2.5-0.9-4.7-2.7-6.5
		s-4-2.7-6.6-2.7c-2.5,0-4.6,0.9-6.4,2.7c-1.8,1.8-2.8,4-2.8,6.5c0,2.6,1,4.7,2.8,6.5s3.9,2.7,6.4,2.7c2.6,0,4.8-0.9,6.6-2.7
		S20.2,13.5,20.2,11"/>
	<path class="st1" d="M17.5,17.5c-1.8,1.8-4,2.7-6.6,2.7c-2.5,0-4.6-0.9-6.4-2.7S1.7,13.6,1.7,11c0-2.5,1-4.7,2.8-6.5
		s3.9-2.7,6.4-2.7c2.6,0,4.8,0.9,6.6,2.7s2.7,4,2.7,6.5C20.2,13.5,19.2,15.7,17.5,17.5 M18.2,14.1l-1-0.4l-0.4,0.1v-0.5
		c0-0.7-0.3-1.2-0.8-1.7l0.2-0.8l-0.4-1l-1-0.4l-1,0.4c-0.2,0.3-0.3,0.6-0.3,1V11l-0.4,0.1l-0.5-0.8C12.4,10,12,9.8,11.5,9.8
		L10.7,10l0.1-0.8c0-0.9-0.3-1.5-1-2.1c-0.6-0.5-1.2-0.8-2-0.8l-1,0.1l-1,0.7C5.2,7.7,4.9,8.3,4.9,9.2c0,0.8,0.3,1.4,0.9,2l1,0.8
		h1.7l-1.7,0.5H6.6l-0.2,0.4l-0.1-0.1c-0.4-0.3-0.9-0.5-1.4-0.5l-1.3,0.5l-0.5,0.8L3,14.1l0.6,0.9L4.3,15c0.9-0.2,1.1-0.6,1-1.1
		l-0.7-0.4L5.5,14l-0.3,1l13.5-0.2L18.2,14.1"/>
	<path class="st2" d="M18.6,14.8L5.2,15l0.3-1l-0.9-0.5l0.7,0.4c0.2,0.7-0.1,1-1,1.1l-0.8-0.1L3,14.1l0.1-0.6l0.5-0.8l1.3-0.5
		c0.6,0,1,0.2,1.4,0.5l0.1,0.1l0.2-0.4h0.2L8.5,12H6.8l-1-0.8c-0.6-0.6-0.9-1.2-0.9-2c0-0.9,0.3-1.5,0.9-2.1l1-0.7l1-0.1
		c0.8,0,1.4,0.3,2,0.8c0.7,0.6,1,1.2,1,2.1L10.7,10l0.8-0.2c0.5,0,1,0.2,1.3,0.6l0.5,0.8l0.4-0.1v-0.2c0-0.4,0.1-0.7,0.3-1l1-0.4
		l1,0.4l0.4,1l-0.2,0.8c0.5,0.5,0.8,1,0.8,1.7v0.5l0.4-0.1l1,0.4L18.6,14.8"/>
	<path class="st3" d="M18.5,18.4c-2.1,2-4.6,3.1-7.5,3.1s-5.4-1-7.4-3.1c-2.1-2.1-3.1-4.6-3.1-7.4c0-3,1-5.4,3.1-7.4
		c2-2,4.5-3.1,7.4-3.1s5.4,1,7.5,3.1c2,2,3.1,4.5,3.1,7.4C21.6,13.9,20.5,16.3,18.5,18.4z"/>
</g>
</svg>
