<svg id="Layer_1" data-name="Layer 1" xmlns="http://www.w3.org/2000/svg" viewBox="0 0 22 21.89"><defs><style>.cls-1{fill:#009833;}.cls-2{fill:#063;}.cls-3{fill:#e2e2e2;}.cls-4{fill:#a1c2b0;}.cls-5{fill:#036735;}.cls-6{fill:#20a34c;}.cls-7{fill:#a2cdb1;}</style></defs><title>Air_square</title><path class="cls-1" d="M21.93,21.94H.07A.17.17,0,0,1,0,21.8V.4C0,.28,0,.15.07.06H21.93A.17.17,0,0,1,22,.2V21.6C22,21.72,22,21.85,21.93,21.94Z" transform="translate(0 -0.06)"/><path class="cls-2" d="M.74,11.07V1.17C.74,1,.74,1,1,1H20.73C21,1,21,1,21,1.17V21c0,.22,0,.22-.22.22H1c-.22,0-.22,0-.22-.22Z" transform="translate(0 -0.06)"/><path class="cls-3" d="M1.58,20.32v-.15q0-9.06,0-18.13c0-.15.05-.18.19-.18q9,0,18.1,0c.15,0,.19,0,.19.19V20.17c0,.14,0,.18-.18.18-2.74,0-5.48,0-8.22,0H11.5a.07.07,0,0,1,0-.05,11.36,11.36,0,0,0,1.18-1.49,4.75,4.75,0,0,1,1.4-1.2c.07-.05.11-.05.16,0a1.55,1.55,0,0,0,.12.22h0c.06-.22.11-.44.16-.66.29-1.24.58-2.48.86-3.72a9,9,0,0,0,.13-1c.08-.73.15-1.47.23-2.2a.94.94,0,0,0,0-.29c0-.24,0-.49.07-.73s0-.31.07-.47A.2.2,0,0,1,16,8.64a5.82,5.82,0,0,0,.2-.68,5.38,5.38,0,0,1,.95-1.84s.06-.08,0-.12a6.17,6.17,0,0,0-2.61-1.47,3.36,3.36,0,0,0-2.44.38,7.39,7.39,0,0,0-1.94,1.58c-.22.23-.42.49-.63.73,0,.06-.06.11,0,.16-.12.18-.27.32-.39.49l-.31.38a.24.24,0,0,1-.1.1c-.07,0-.11,0-.12-.07a.34.34,0,0,1,0-.1A10.84,10.84,0,0,1,10,4.78a4.88,4.88,0,0,1,.68-.84c-.25.17-.56.36-.84.58A8.73,8.73,0,0,0,7.69,7.05a9.39,9.39,0,0,0-1,2.72,15.23,15.23,0,0,0-.23,1.53c0,.18,0,.18.17.18a3.29,3.29,0,0,1,2,.65,8.25,8.25,0,0,1,1.3,1.06c.06.06.11.14.17.19a.54.54,0,0,0,.12.09l.06.06a1.22,1.22,0,0,0,.27.24,3.23,3.23,0,0,1,.76,1c.08.14.18.27.26.42a.31.31,0,0,1,0,.1s0,.08,0,.11-.07,0-.1,0a1.18,1.18,0,0,1-.27-.22s-.05-.07-.09-.06,0,.06,0,.1c-.09.54-.17,1.08-.25,1.62-.11.7-.21,1.39-.33,2.08-.07.38-.22.74-.32,1.12a1.18,1.18,0,0,1-.07.2c0,.07,0,.14-.14.15H1.75A.33.33,0,0,1,1.58,20.32Z" transform="translate(0 -0.06)"/><path class="cls-1" d="M10.07,13.42a11,11,0,0,0-1.21-1.05A4.19,4.19,0,0,0,7,11.55a3,3,0,0,0-.52,0c-.12,0-.14,0-.13-.13a11.74,11.74,0,0,1,.49-2.63A8.65,8.65,0,0,1,9.55,4.71a8.27,8.27,0,0,1,1.39-.94A9.57,9.57,0,0,0,8.63,8.34c.07,0,.08,0,.11-.08.19-.23.37-.47.55-.7a.46.46,0,0,1,.23-.18l.72,1.82c.15.35.29.7.42,1.06a.16.16,0,0,0,.17.12l1.88,0h1c-.21.12-.44.21-.65.33a3.35,3.35,0,0,0-1,.81,1.43,1.43,0,0,0-.32.84c0,.4-.07.81-.1,1.22a1.84,1.84,0,0,1-.1.52c-.05.11,0,.22.07.33a6.31,6.31,0,0,0,.7,1,9.65,9.65,0,0,1,.79,1,2.53,2.53,0,0,1,.13.22c0,.08.09.17,0,.25s-.17,0-.25,0l-.69-.37-.07,0s0,0,0,.07a2.39,2.39,0,0,1,0,2c-.09.24-.21.46-.31.69-.05.07-.12,0-.19,0-.28-.05-.55-.13-.83-.18-.05,0-.13-.06-.16,0s0,.11.11.14l.61.27c.06,0,.14,0,.15.14s-.13.1-.18.16a2.46,2.46,0,0,1-.8.63.42.42,0,0,1-.48-.09s-.08,0-.11,0c.13-.44.28-.88.39-1.33s.12-.73.18-1.1L11,15.05a.35.35,0,0,1,0-.13l.5.44s0-.08,0-.11c-.22-.35-.43-.7-.66-1a3.58,3.58,0,0,0-.56-.54s-.11-.06-.1-.13,0-.16,0-.24a6.94,6.94,0,0,1,1.12-1.68,9.17,9.17,0,0,1,1-1h0A4.13,4.13,0,0,0,9.73,12.1c-.14.16-.14.16,0,.35l.39.74c0,.07.07.13,0,.21A0,0,0,0,1,10.07,13.42Z" transform="translate(0 -0.06)"/><path class="cls-3" d="M15.78,10a.4.4,0,0,1-.1-.12,3.74,3.74,0,0,0-1.74-1.55,7.55,7.55,0,0,0-1.47-.52l-.15,0a3.83,3.83,0,0,1,1.16-.08,4.89,4.89,0,0,1,2.43.92s.06,0,.05.08a1.4,1.4,0,0,0-.15.64A3.07,3.07,0,0,1,15.78,10Z" transform="translate(0 -0.06)"/><path class="cls-3" d="M11.59,19.65l-.85-.37a.25.25,0,0,1-.1-.29c0-.06.08,0,.12,0l1,.22.13,0h.23l0,0C12,19.37,11.84,19.6,11.59,19.65Z" transform="translate(0 -0.06)"/><path class="cls-4" d="M10,20.32c.05,0,.08,0,.11,0H1.7s-.09,0-.12,0H10Z" transform="translate(0 -0.06)"/><path class="cls-5" d="M15.78,10a5.16,5.16,0,0,1,0-1c0-.11,0-.25.18-.28h0a4.27,4.27,0,0,1-.1.79,1.61,1.61,0,0,1-.1.53Z" transform="translate(0 -0.06)"/><path class="cls-3" d="M10.1,13.39c-.17-.35-.35-.69-.53-1a.15.15,0,0,1,0-.2,4.26,4.26,0,0,1,2.67-1.54h.15s.08,0,.09,0a8.76,8.76,0,0,0-1.58,1.64,6.66,6.66,0,0,0-.66,1.16.47.47,0,0,1,0,.1l-.05,0A.21.21,0,0,1,10.1,13.39Z" transform="translate(0 -0.06)"/><path class="cls-6" d="M10.1,13.39a.19.19,0,0,1,.07.12.15.15,0,0,1-.1-.09Z" transform="translate(0 -0.06)"/><path class="cls-7" d="M12.51,10.64s-.06,0-.09,0l.09,0s0,0,0,0S12.52,10.63,12.51,10.64Z" transform="translate(0 -0.06)"/></svg>