<?xml version="1.0" encoding="utf-8"?>
<!-- Generator: Adobe Illustrator 22.0.1, SVG Export Plug-In . SVG Version: 6.00 Build 0)  -->
<svg version="1.1" id="Layer_1" xmlns:author="http://www.sothink.com"
	 xmlns="http://www.w3.org/2000/svg" xmlns:xlink="http://www.w3.org/1999/xlink" x="0px" y="0px" viewBox="0 0 22 22"
	 style="enable-background:new 0 0 22 22;" xml:space="preserve">
<style type="text/css">
	.st0{fill:#B3CB20;}
	
		.st1{fill:none;stroke:#000000;stroke-width:5.000000e-02;stroke-linecap:round;stroke-linejoin:round;stroke-miterlimit:3;stroke-opacity:0.502;}
	.st2{fill:#FF9900;}
</style>
<g>
	<path class="st0" d="M21.8,21.8H7.2V7.4c0.1-2,0.8-3.7,2.1-5c1.2-1.2,2.5-1.9,4.2-2.1l1.1-0.1c2,0,3.7,0.7,5.2,2.2
		c1.3,1.3,2,3,2.1,5V21.8"/>
	<path class="st1" d="M21.8,21.8H7.2V7.4c0.1-2,0.8-3.7,2.1-5c1.2-1.2,2.5-1.9,4.2-2.1l1.1-0.1c2,0,3.7,0.7,5.2,2.2
		c1.3,1.3,2,3,2.1,5V21.8z"/>
	<path class="st2" d="M12.4,6.2l5.5,5.6l0.4,0.8l-0.4,0.7l-5.5,5.4c-0.1,0.2-0.4,0.4-0.7,0.4c-0.3,0-0.6-0.1-0.8-0.4L10.5,18v-2.2
		H1.4c-0.4,0-0.6-0.1-0.8-0.4l-0.4-0.7v-4L0.5,10C0.7,9.7,1,9.6,1.4,9.6h9.2V7c0-0.3,0.1-0.6,0.3-0.8C11.1,6,11.3,6,11.6,6
		C12,6,12.2,6,12.4,6.2"/>
	<path class="st1" d="M11.6,6c-0.3,0-0.6,0.1-0.8,0.3c-0.2,0.2-0.3,0.5-0.3,0.8v2.5H1.4C1,9.6,0.7,9.7,0.5,10l-0.4,0.7v4l0.4,0.7
		c0.2,0.2,0.5,0.4,0.8,0.4h9.2V18l0.3,0.7c0.2,0.2,0.5,0.4,0.8,0.4c0.4,0,0.6-0.1,0.7-0.4l5.5-5.4l0.4-0.7l-0.4-0.8l-5.5-5.6
		C12.2,6,12,6,11.6,6z"/>
</g>
</svg>
