<svg id="Layer_1" data-name="Layer 1" xmlns="http://www.w3.org/2000/svg" viewBox="0 0 22 21.86"><defs><style>.cls-1{fill:#d26c05;}.cls-2{fill:#714701;}.cls-3{fill:#e2e2e2;}.cls-4{fill:#aa5703;}</style></defs><title>Earth_square</title><path class="cls-1" d="M21.93,21.93H.07A.21.21,0,0,1,0,21.78V.22A.21.21,0,0,1,.07.07H21.93A.21.21,0,0,1,22,.22V21.78A.21.21,0,0,1,21.93,21.93Z" transform="translate(0 -0.07)"/><path class="cls-2" d="M.76,11.06V1.19C.76,1,.76,1,1,1H20.73C21,1,21,1,21,1.19V21c0,.22,0,.22-.22.22H1c-.22,0-.22,0-.22-.22Z" transform="translate(0 -0.07)"/><path class="cls-3" d="M1.61,11.5c0-.06,0-.11,0-.16V2c0-.12,0-.16.16-.16H19.89c.12,0,.16,0,.16.16v9.8c0,.2,0,.2-.19.16h-.07a.39.39,0,0,1-.26,0l-1.23-.41a.33.33,0,0,0-.35.06l-2,1.58a.4.4,0,0,1-.35.07l-1.17-.2c-.26-.05-.52-.1-.81-.14a3.43,3.43,0,0,0,.32.41c.35.41.69.84,1,1.25a.18.18,0,0,1,.05.07c0,.05,0,.1,0,.15s-.09,0-.13,0l-.12-.05-4.25-2.11-2.1-1a.68.68,0,0,0-.28-.07h-2c-.18,0-.19,0-.14.19.09.34.18.68.28,1,0,.07,0,.14,0,.2S6.06,13,6,13l-2.1-.67-2.09-.67A.27.27,0,0,1,1.61,11.5Z" transform="translate(0 -0.07)"/><path class="cls-4" d="M1.61,11.5l2.45.77,2,.64.12,0c-.08-.28-.15-.54-.22-.8s-.1-.36-.16-.53,0-.13.11-.13H8.17a.46.46,0,0,1,.2,0l5.41,2.68c.4.2.79.39,1.21.57l-1.6-1.95a6.12,6.12,0,0,1,.64.1l1.55.28a.32.32,0,0,0,.28-.07L18,11.5s.09-.08.16-.05l1.62.54a3.14,3.14,0,0,0-.33.48c-.24.36-.47.73-.7,1.09a.54.54,0,0,0-.1.33v1.6a.23.23,0,0,1-.15.25l-2.57,1.19s-.09,0-.09.06.05.06.08.08l.53.34v0l-5.66-1.28,0,0,.89.89,0,0-1-.16-3.55-.53L4.55,16a.29.29,0,0,0-.28.1L2.71,17.76a.26.26,0,0,0-.06.21c0,.73,0,1.46,0,2.19,0,.14,0,.19-.18.18s-.46,0-.7,0-.17,0-.17-.17c0-.87,0-1.74,0-2.61V11.73C1.6,11.65,1.61,11.57,1.61,11.5Z" transform="translate(0 -0.07)"/></svg>