<?xml version="1.0" encoding="utf-8"?>
<!-- Generator: Adobe Illustrator 22.0.1, SVG Export Plug-In . SVG Version: 6.00 Build 0)  -->
<svg version="1.1" id="Layer_1" xmlns:author="http://www.sothink.com"
	 xmlns="http://www.w3.org/2000/svg" xmlns:xlink="http://www.w3.org/1999/xlink" x="0px" y="0px" viewBox="0 0 22 22"
	 style="enable-background:new 0 0 22 22;" xml:space="preserve">
<style type="text/css">
	.st0{fill:#FE0000;}
	
		.st1{fill:none;stroke:#000000;stroke-width:0.2;stroke-linecap:round;stroke-linejoin:round;stroke-miterlimit:3;stroke-opacity:0.302;}
</style>
<g>
	<path class="st0" d="M19.6,6.1c1.4,0,2.2,0.7,2.2,2.2v5.1c0.1,1.6-0.7,2.4-2.2,2.4H16v3.6c0.1,1.6-0.7,2.4-2.2,2.4H8.7
		c-1.6,0.1-2.4-0.7-2.4-2.2v-3.7H2.6C1,16,0.2,15.2,0.1,13.7V8.6C0.1,7,0.8,6.2,2.4,6.2h3.8V2.6C6.1,1,6.9,0.2,8.4,0.1h5.1
		c1.6-0.1,2.4,0.7,2.4,2.2v3.7h3.5H19.6"/>
	<path class="st1" d="M19.4,6.1h-3.5V2.4c-0.1-1.6-0.9-2.3-2.4-2.2H8.4C6.9,0.2,6.1,1,6.2,2.6v3.6H2.4C0.8,6.2,0.1,7,0.1,8.6v5.1
		C0.2,15.2,1,16,2.6,15.9h3.7v3.7c0.1,1.6,0.9,2.3,2.4,2.2h5.1c1.6-0.1,2.3-0.9,2.2-2.4v-3.6h3.6c1.6-0.1,2.3-0.9,2.2-2.4V8.3
		c-0.1-1.5-0.8-2.2-2.2-2.2H19.4z"/>
</g>
</svg>
