<?xml version="1.0" encoding="utf-8"?>
<!-- Generator: Adobe Illustrator 22.0.1, SVG Export Plug-In . SVG Version: 6.00 Build 0)  -->
<svg version="1.1" id="Layer_1" xmlns:author="http://www.sothink.com"
	 xmlns="http://www.w3.org/2000/svg" xmlns:xlink="http://www.w3.org/1999/xlink" x="0px" y="0px" viewBox="0 0 22 22"
	 style="enable-background:new 0 0 22 22;" xml:space="preserve">
<style type="text/css">
	.st0{fill:#B20000;}
	.st1{fill:#FE0000;}
	.st2{fill:#FF4E4E;}
	
		.st3{fill:none;stroke:#000000;stroke-width:0.2;stroke-linecap:round;stroke-linejoin:round;stroke-miterlimit:3;stroke-opacity:0.302;}
</style>
<g>
	<path class="st0" d="M1.5,11.8c3,3.7,6.2,5.3,9.6,5c8.3-1.4,11.3-6.2,9.1-14.2c0.7,0.9,1.3,2.2,1.7,3.8l-0.3,3.5
		c-1.3,4.4-4.8,8.2-10.5,11.3C5.4,18.1,1.9,14.4,0.6,9.9L1.5,11.8"/>
	<path class="st1" d="M0.6,9.9C0.2,8.8,0,7.6,0.2,6.4c1.1-4,3-5.9,5.7-5.7c2.7,0.2,4.4,1.2,5.1,3c0.7-1.8,2.4-2.8,5.1-3
		c1.6-0.1,2.9,0.5,3.9,1.9c2.2,8-0.8,12.7-9.1,14.2c-3.4,0.3-6.6-1.4-9.6-5L0.6,9.9 M15.4,3.2l3.5-0.4c-1.1-1.3-2.4-1.7-3.9-1.3
		C13.4,2,12.6,2.8,12.8,4c0.5,1,1.1,1.1,1.9,0.3L15.4,3.2 M2.8,5.5l1.3-0.1c1.4-1.4,3.4-1.7,5.9-1.1C9.8,2.8,8.4,1.9,6,1.7
		C4.4,1.9,3.4,2.4,2.9,3C2,4.1,2,4.9,2.8,5.5"/>
	<path class="st2" d="M14.7,4.3C13.9,5.1,13.3,5,12.8,4c-0.2-1.2,0.6-2,2.2-2.4c1.5-0.4,2.8,0,3.9,1.3l-3.5,0.4L14.7,4.3 M2.9,3
		C3.4,2.4,4.4,1.9,6,1.7c2.5,0.2,3.8,1.1,4.1,2.7C7.6,3.7,5.6,4.1,4.2,5.4L2.8,5.5C2,4.9,2,4.1,2.9,3"/>
	<path class="st3" d="M20.2,2.7c0.7,0.9,1.3,2.2,1.7,3.8l-0.3,3.5c-1.3,4.4-4.8,8.2-10.5,11.3C5.4,18.1,1.9,14.4,0.6,9.9
		C0.2,8.8,0,7.6,0.2,6.4c1.1-4,3-5.9,5.7-5.7c2.7,0.2,4.4,1.2,5.1,3c0.7-1.8,2.4-2.8,5.1-3C17.8,0.7,19.1,1.3,20.2,2.7z"/>
</g>
</svg>
