<?xml version="1.0" encoding="utf-8"?>
<!-- Generator: Adobe Illustrator 22.0.1, SVG Export Plug-In . SVG Version: 6.00 Build 0)  -->
<svg version="1.1" id="Layer_1" xmlns:author="http://www.sothink.com"
	 xmlns="http://www.w3.org/2000/svg" xmlns:xlink="http://www.w3.org/1999/xlink" x="0px" y="0px" viewBox="0 0 22 22"
	 style="enable-background:new 0 0 22 22;" xml:space="preserve">
<style type="text/css">
	.st0{fill:#660066;}
	.st1{fill:none;stroke:#880088;stroke-width:0.5;stroke-linecap:round;stroke-linejoin:round;stroke-miterlimit:3;}
	.st2{fill:#E3E3E3;}
</style>
<g>
	<path class="st0" d="M18.5,18.3c-2.1,2.1-4.6,3.1-7.5,3.1c-2.8,0-5.3-1-7.5-3c-2-2.1-3-4.6-3-7.4s1-5.4,3-7.5
		c2.2-2,4.6-2.9,7.5-2.9c2.9,0,5.4,0.9,7.5,2.9c2,2.1,3,4.6,3,7.5S20.5,16.3,18.5,18.3"/>
	<path class="st1" d="M18.5,18.3c-2.1,2.1-4.6,3.1-7.5,3.1c-2.8,0-5.3-1-7.5-3c-2-2.1-3-4.6-3-7.4s1-5.4,3-7.5
		c2.2-2,4.6-2.9,7.5-2.9c2.9,0,5.4,0.9,7.5,2.9c2,2.1,3,4.6,3,7.5S20.5,16.3,18.5,18.3z"/>
	<path class="st2" d="M17.4,17.4c-1.8,1.8-4,2.7-6.4,2.7s-4.6-0.9-6.4-2.7C2.9,15.6,2,13.6,2,11.1c0-2.6,0.9-4.7,2.7-6.4
		S8.5,1.9,11,1.9c2.6,0,4.7,0.9,6.4,2.7c1.7,1.8,2.7,4,2.7,6.4C20.2,13.6,19.2,15.6,17.4,17.4"/>
	<path class="st0" d="M15.3,15l-2.5-2.5l-6.4,6.6c-1.2-0.4-2.3-1.3-3.1-2.9l6.6-6.6L7.1,6.8h8.2L15.3,15"/>
</g>
</svg>
