<svg id="Layer_1" data-name="Layer 1" xmlns="http://www.w3.org/2000/svg" viewBox="0 0 11.29 14.06"><defs><style>.cls-1{fill:#d8e8e9;}.cls-2{fill:#58382b;}.cls-3{fill:#9f654b;}.cls-4{fill:#5a3c2f;}.cls-5{fill:#9d654d;}.cls-6{fill:#83b6bd;}</style></defs><title>Melee Damage</title><path class="cls-1" d="M8.56,11c-.64-.38-1.3-.74-1.93-1.13A1.49,1.49,0,0,1,6,7.52c.5-.92,1-1.82,1.57-2.7a1.62,1.62,0,0,1,2.36-.57l2.13,1.16a2.24,2.24,0,0,1,.92.2,2.33,2.33,0,0,1,.85.83c.64.38,1.28.76,1.91,1.16a1.56,1.56,0,0,1,.63,2.33c-.52,1-1.07,1.87-1.62,2.79a1.39,1.39,0,0,1-2,.58c-.75-.38-1.49-.79-2.24-1.18a1.33,1.33,0,0,1-.89-.18A1.94,1.94,0,0,1,8.56,11Z" transform="translate(-5.35 -3.97)"/><path class="cls-2" d="M9.73,11.66l.76.46c-1,1.76-2.09,3.51-3.12,5.28A1.08,1.08,0,0,1,6.16,18a.88.88,0,0,1-.81-.94,8.89,8.89,0,0,0,2.34-3c.37-.65.73-1.32,1.16-1.93A.93.93,0,0,1,9.73,11.66Z" transform="translate(-5.35 -3.97)"/><path class="cls-3" d="M9.73,11.66c-1,1.06-1.51,2.48-2.34,3.67-.53.75-.87,1.74-2,1.74C6,15.39,7.13,14,7.94,12.36A3.09,3.09,0,0,0,8.56,11Z" transform="translate(-5.35 -3.97)"/><path class="cls-4" d="M13.82,6.44a2.37,2.37,0,0,1-1-.6c0-.27.08-.52.45-.43A1,1,0,0,1,13.82,6.44Z" transform="translate(-5.35 -3.97)"/><path class="cls-5" d="M13.26,5.41l-.45.43a1.2,1.2,0,0,1-.75-.43A.87.87,0,0,1,13.26,5.41Z" transform="translate(-5.35 -3.97)"/><path class="cls-6" d="M9.72,5.92c-.1,2.86,1.51,4.69,3.71,6.17.24.16.76.19.6.61s-.59.23-.89.19a2.38,2.38,0,0,1-.82-.3l-5.18-3a1.34,1.34,0,0,1-.6-2.05c.44-.8.93-1.58,1.4-2.36a1.35,1.35,0,0,1,.65-.58c.77-.34,1.17-.08,1.14.75C9.72,5.53,9.72,5.72,9.72,5.92Z" transform="translate(-5.35 -3.97)"/></svg>