<svg id="Layer_1" data-name="Layer 1" xmlns="http://www.w3.org/2000/svg" viewBox="0 0 12.19 14.84"><defs><style>.cls-1{fill:#573a2e;}.cls-2{fill:#a0654b;}.cls-3{fill:#e7b633;}</style></defs><title>Melee Resistance</title><path class="cls-1" d="M11.06,18.38l-.06,0-.06,0c-6.64-4.32-6-12.81-6-12.81a12.24,12.24,0,0,1,6-2h.12a12.24,12.24,0,0,1,6,2S17.69,14.06,11.06,18.38Z" transform="translate(-4.9 -3.58)"/><path class="cls-2" d="M11.05,17.15l-.05,0-.05,0c-5.53-3.6-5-10.68-5-10.68a10.15,10.15,0,0,1,5-1.65h.1a10.15,10.15,0,0,1,5,1.65S16.58,13.55,11.05,17.15Z" transform="translate(-4.9 -3.58)"/><circle class="cls-3" cx="3.58" cy="4.38" r="0.59"/><circle class="cls-3" cx="8.72" cy="4.38" r="0.59"/><circle class="cls-3" cx="6.15" cy="9.71" r="0.59"/></svg>