<?xml version="1.0" encoding="utf-8"?>
<!-- Generator: Adobe Illustrator 22.0.1, SVG Export Plug-In . SVG Version: 6.00 Build 0)  -->
<svg version="1.1" id="Layer_1" xmlns:author="http://www.sothink.com"
	 xmlns="http://www.w3.org/2000/svg" xmlns:xlink="http://www.w3.org/1999/xlink" x="0px" y="0px" viewBox="0 0 22 22"
	 style="enable-background:new 0 0 22 22;" xml:space="preserve">
<style type="text/css">
	.st0{fill:#110300;}
	.st1{fill:#E3E3E3;}
	.st2{fill:#F0F0F0;}
	.st3{fill:none;stroke:#777777;stroke-width:0.5;stroke-linecap:round;stroke-linejoin:round;stroke-miterlimit:3;}
</style>
<g>
	<path class="st0" d="M21.6,11c0,2.8-1,5.4-3.1,7.4s-4.5,3.1-7.4,3.1c-2.8,0-5.4-1-7.4-3.1c-2-2.1-3.1-4.6-3.1-7.4
		c0-3,1-5.5,3.1-7.4c2.1-2,4.6-3.1,7.4-3.1c3,0,5.5,1,7.4,3.1S21.6,8,21.6,11 M4.6,4.5C2.8,6.3,1.8,8.6,1.8,11
		c0,2.5,0.9,4.7,2.7,6.5s4,2.6,6.3,2.6c2.5,0,4.7-0.8,6.5-2.6c1.8-1.8,2.6-4,2.6-6.5c0-2.4-0.8-4.7-2.6-6.5c-1.8-1.8-4-2.6-6.5-2.6
		h-0.2C8.4,1.9,6.3,2.8,4.6,4.5"/>
	<path class="st1" d="M10.9,20.2c-2.4,0-4.5-0.8-6.3-2.6s-2.7-4-2.7-6.5c0-2.4,0.9-4.7,2.7-6.5c1.7-1.7,3.8-2.5,6.1-2.6
		c1.2,0.1,2.3,0.5,3.2,1.2c0.8,0.8,1.3,2,1.3,3.4s-0.5,2.4-1.3,3.3c-0.8,0.8-1.9,1.2-3.2,1.3h-0.2c-1.2,0-2.4,0.4-3.3,1.2
		C6.4,13,6,14.3,6,15.6s0.4,2.4,1.2,3.3c0.7,0.7,1.5,1.1,2.4,1.2L10.9,20.2 M10,7.3l0.9,0.5c0.4,0,0.7-0.2,0.8-0.5l0.4-0.8l-0.4-0.9
		l-0.8-0.3L10,5.5C9.8,5.8,9.7,6.1,9.7,6.4C9.7,6.9,9.8,7.1,10,7.3"/>
	<path d="M9.8,20.1c-0.9-0.1-1.8-0.6-2.4-1.2c-0.8-0.8-1.2-1.9-1.2-3.3s0.4-2.4,1.2-3.4c0.8-0.8,2-1.2,3.3-1.2h0.2
		c1.2-0.1,2.3-0.5,3.2-1.3c0.8-0.8,1.3-1.9,1.3-3.3s-0.5-2.5-1.4-3.4c-0.8-0.8-1.9-1.1-3.2-1.2h0.2c2.5,0,4.7,0.8,6.5,2.6
		s2.6,4.1,2.6,6.5c0,2.5-0.8,4.7-2.6,6.5c-1.8,1.8-4,2.6-6.5,2.6L9.8,20.1 M9.7,6.4c0-0.3,0.1-0.6,0.3-0.8l0.9-0.3l0.8,0.3l0.4,0.9
		l-0.4,0.8c-0.2,0.3-0.5,0.5-0.8,0.5L10,7.3C9.8,7.1,9.7,6.9,9.7,6.4 M10,14.9c-0.2,0.3-0.3,0.6-0.3,0.8l0.3,0.9l0.9,0.4l0.8-0.4
		l0.4-0.8l-0.4-0.9l-0.8-0.3L10,14.9"/>
	<path class="st2" d="M10.9,14.6l0.8,0.3l0.4,0.9l-0.4,0.8L10.9,17L10,16.7l-0.3-0.9c0-0.3,0.1-0.6,0.3-0.8L10.9,14.6"/>
	<path class="st3" d="M21.6,11c0,2.8-1,5.4-3.1,7.4s-4.5,3.1-7.4,3.1c-2.8,0-5.4-1-7.4-3.1c-2-2.1-3.1-4.6-3.1-7.4
		c0-3,1-5.5,3.1-7.4c2.1-2,4.6-3.1,7.4-3.1c3,0,5.5,1,7.4,3.1S21.6,8,21.6,11z"/>
</g>
</svg>
