<?xml version="1.0" encoding="utf-8"?>
<!-- Generator: Adobe Illustrator 22.0.1, SVG Export Plug-In . SVG Version: 6.00 Build 0)  -->
<svg version="1.1" id="Layer_1" xmlns:author="http://www.sothink.com"
	 xmlns="http://www.w3.org/2000/svg" xmlns:xlink="http://www.w3.org/1999/xlink" x="0px" y="0px" viewBox="0 0 22 22"
	 style="enable-background:new 0 0 22 22;" xml:space="preserve">
<style type="text/css">
	.st0{fill:#26B58D;}
	
		.st1{fill:none;stroke:#000000;stroke-width:5.000000e-02;stroke-linecap:round;stroke-linejoin:round;stroke-miterlimit:3;stroke-opacity:0.502;}
</style>
<g>
	<path class="st0" d="M21.2,9.4l0.4,0.6c0.5,1.1,0.4,1.9-0.3,2.5c-3.5,4.5-6.9,6.7-10.3,6.6C7.5,19.3,4,17,0.6,12.4l-0.1-0.1L0.2,12
		v-0.4C0,10.9,0.1,10.2,0.6,9.5l1.4-1.6c1-1.2,2.2-2.3,3.5-3.2h0.3V4.5c1.8-1.1,3.5-1.6,5.2-1.6c1.6,0,3.1,0.5,4.6,1.4V4.1l0.1,0.3
		l0.3,0.1c1.6,0.8,3.1,2.2,4.7,4.2l0.2,0.2L21.2,9.4 M14.8,8.8c0,1.2-0.4,2.2-1.2,3c-0.8,0.8-1.7,1.2-2.8,1.2s-2-0.4-2.8-1.2
		C7.2,11,6.8,10,6.8,8.8V8.2l7.9-0.3L14.8,8.8 M2.4,11c2.8,3.4,5.7,5.2,8.6,5.2c2.8,0,5.6-1.7,8.5-5.2l-3.4-3.4
		C12.6,4.9,9.2,4.9,5.7,7.7C4.6,8.5,3.5,9.6,2.4,11"/>
	<path class="st1" d="M21.2,9.4l0.4,0.6c0.5,1.1,0.4,1.9-0.3,2.5c-3.5,4.5-6.9,6.7-10.3,6.6C7.5,19.3,4,17,0.6,12.4l-0.1-0.1L0.2,12
		v-0.4C0,10.9,0.1,10.2,0.6,9.5l1.4-1.6c1-1.2,2.2-2.3,3.5-3.2h0.3V4.5c1.8-1.1,3.5-1.6,5.2-1.6c1.6,0,3.1,0.5,4.6,1.4V4.1l0.1,0.3
		l0.3,0.1c1.6,0.8,3.1,2.2,4.7,4.2l0.2,0.2L21.2,9.4 M14.8,8.8c0,1.2-0.4,2.2-1.2,3c-0.8,0.8-1.7,1.2-2.8,1.2s-2-0.4-2.8-1.2
		C7.2,11,6.8,10,6.8,8.8V8.2l7.9-0.3L14.8,8.8 M5.7,7.7c3.4-2.8,6.9-2.9,10.3-0.1l3.4,3.4c-2.9,3.4-5.7,5.2-8.5,5.2
		c-2.9,0-5.8-1.7-8.6-5.2C3.5,9.6,4.6,8.5,5.7,7.7"/>
</g>
</svg>
