<svg id="Layer_1" data-name="Layer 1" xmlns="http://www.w3.org/2000/svg" viewBox="0 0 12.5 14.84"><defs><style>.cls-1{fill:#9f654b;}.cls-2{fill:#d3c8b5;}.cls-3{fill:#cdc2ae;}.cls-4{fill:#d5d3d2;}.cls-5{fill:#9a634a;}.cls-6{fill:#d8d3d1;}.cls-7{fill:#dcd7d5;}.cls-8{fill:#cac0bb;}.cls-9{fill:#d0cdcc;}.cls-10{fill:#9f9592;}.cls-11{fill:#b4b2b1;}.cls-12{fill:#b6b5b4;}</style></defs><title>Ranged Damage</title><path class="cls-1" d="M7.7,16.23a1.75,1.75,0,0,1-.9,2,1.29,1.29,0,0,1-1.93-.65c-.31-.73,0-1.2.78-1.05.94.19.95-.4.82-1a21.42,21.42,0,0,0-.75-2.12,2.36,2.36,0,0,1-.18-1.89c-.2-.26,0-.49.07-.72A1.39,1.39,0,0,1,7.13,10a.92.92,0,0,1,.53.74c0,.09,0,.22-.06.27-1.07.81-.87,1.72-.34,2.75a5.31,5.31,0,0,1,.63,1.62C8,15.67,7.5,15.87,7.7,16.23Z" transform="translate(-4.75 -3.58)"/><path class="cls-1" d="M8.86,7a1.86,1.86,0,0,1,2-1.76A21.73,21.73,0,0,1,14,5.53a1.85,1.85,0,0,0,1.25-.1c.53-.37.08-.73,0-1.11a.54.54,0,0,1,.54-.74c.74,0,1.4.1,1.47,1A1.87,1.87,0,0,1,15,6.29a6.46,6.46,0,0,0-.88,0c-.65,0-1.27-.2-1.92-.23-1.07,0-1.94.09-2.32,1.24A.72.72,0,0,1,8.86,7Z" transform="translate(-4.75 -3.58)"/><path class="cls-2" d="M7.7,16.23c-1-.29.14-.51,0-.77,0-.85.72-1.29,1.17-1.84C9.93,12.3,11,11,12,9.68c.23-.27.45-.58.89-.44.13.09.22.19.12.36L9,14.67C8.61,15.2,8.15,15.71,7.7,16.23Z" transform="translate(-4.75 -3.58)"/><path class="cls-1" d="M14,6a3,3,0,0,0,3.15-1.41c.29,1-.38,1.85-1.61,2-.23-.12-.46.09-.69,0S14.06,6.61,14,6Z" transform="translate(-4.75 -3.58)"/><path class="cls-3" d="M15,6.42c.24-.12.45-.15.56.16l-2.52,3-.27-.28c0-1.07,1-1.53,1.46-2.37a2.5,2.5,0,0,1,.38-.43A.5.5,0,0,1,15,6.42Z" transform="translate(-4.75 -3.58)"/><path class="cls-4" d="M8.86,7l1,.17a.45.45,0,0,1,.56.25.83.83,0,0,1-.28.93,1.91,1.91,0,0,1-1,.13.58.58,0,0,1-.41-.28A1.34,1.34,0,0,1,8.86,7Z" transform="translate(-4.75 -3.58)"/><path class="cls-5" d="M7.09,10.13a1.69,1.69,0,0,0-1.38.77c-.17,0-.3,0-.2-.21a1.4,1.4,0,0,1,1.39-1C7.26,9.72,7.23,9.9,7.09,10.13Z" transform="translate(-4.75 -3.58)"/><path class="cls-6" d="M7.92,9.39a.41.41,0,0,1,.18-.05c.32-.11.44.12.57.34a1.26,1.26,0,0,1-.18,1,.5.5,0,0,1-.74,0A1,1,0,0,1,7.92,9.39Z" transform="translate(-4.75 -3.58)"/><path class="cls-7" d="M8.72,8.16h.34c.17.15.45.17.52.45a.67.67,0,0,1-.46.69.81.81,0,0,1-.31,0c-.23-.12-.46-.24-.33-.58C8.37,8.44,8.56,8.31,8.72,8.16Z" transform="translate(-4.75 -3.58)"/><path class="cls-8" d="M8.48,8.71l.42.39a.45.45,0,0,1-.18.7.28.28,0,0,1-.3-.07L8.1,9.34C8.12,9.07,8,8.73,8.48,8.71Z" transform="translate(-4.75 -3.58)"/><path class="cls-9" d="M7.09,10.13C7,10,7,9.86,6.9,9.72a.51.51,0,0,1,.6-.35c.32.39.22.87.27,1.32a.17.17,0,0,1-.26,0Z" transform="translate(-4.75 -3.58)"/><path class="cls-10" d="M7.69,10.66A3.34,3.34,0,0,1,7.5,9.37l.42,0c0,.44,0,.88,0,1.32A.15.15,0,0,1,7.69,10.66Z" transform="translate(-4.75 -3.58)"/><path class="cls-1" d="M5.51,10.69l.2.21c-.06.21-.11.42-.17.64C5.19,11.26,5.31,11,5.51,10.69Z" transform="translate(-4.75 -3.58)"/><path class="cls-1" d="M14.86,6.59a9.79,9.79,0,0,1-2.7-.32,1.5,1.5,0,0,0-1.92,1.14l-.39-.28c-.11-.94.48-1.27,1.27-1.34A7.73,7.73,0,0,1,14,6c.28.24.73.07,1,.39Z" transform="translate(-4.75 -3.58)"/><path class="cls-1" d="M10.06,8.15v.42a.39.39,0,0,1-.58,0c-.16-.11-.36-.18-.41-.41Z" transform="translate(-4.75 -3.58)"/><path class="cls-10" d="M8.89,10.28l-.43.19a.6.6,0,0,1,0-.74l.27,0A.37.37,0,0,1,8.89,10.28Z" transform="translate(-4.75 -3.58)"/><path class="cls-11" d="M9.47,8.56h.58c0,.56-.14.94-.76,1-.18-.08-.3-.18-.2-.4Z" transform="translate(-4.75 -3.58)"/><path class="cls-12" d="M9.09,9.16l.2.4c.31.49,0,.62-.4.72-.07-.18-.14-.36-.2-.53L8.9,9.1Z" transform="translate(-4.75 -3.58)"/></svg>