<?xml version="1.0" encoding="utf-8"?>
<!-- Generator: Adobe Illustrator 22.0.1, SVG Export Plug-In . SVG Version: 6.00 Build 0)  -->
<svg version="1.1" id="Layer_1" xmlns:author="http://www.sothink.com"
	 xmlns="http://www.w3.org/2000/svg" xmlns:xlink="http://www.w3.org/1999/xlink" x="0px" y="0px" viewBox="0 0 22 22"
	 style="enable-background:new 0 0 22 22;" xml:space="preserve">
<style type="text/css">
	.st0{fill:#5B3924;}
	.st1{fill:#E3E3E3;}
	.st2{fill:#815633;}
	.st3{fill:none;stroke:#815633;stroke-width:0.5;stroke-linecap:round;stroke-linejoin:round;stroke-miterlimit:3;}
</style>
<g>
	<path class="st0" d="M21.3,11c0,2.8-1,5.2-3,7.3c-2,2-4.5,3-7.3,3s-5.3-1-7.3-3c-2-2-3.1-4.5-3.1-7.3c0-2.9,1-5.3,3.1-7.3
		c2-2,4.4-3,7.3-3s5.3,1,7.3,3C20.3,5.7,21.3,8.1,21.3,11 M2.3,13.2v0.2l0.1,0.2L2.5,14l0.2,0.6c0.4,1.1,1.1,2,2,2.9L5.3,18L6,18.4
		L6.7,19c1.2,0.7,2.7,1.1,4.3,1.1c2.5,0,4.6-0.9,6.3-2.7c1.5-1.4,2.4-3,2.6-4.9h-0.1l0.1-1.5c0-2.4-0.9-4.5-2.6-6.3
		c-1.7-1.7-3.9-2.6-6.4-2.6c-2.4,0-4.5,0.9-6.2,2.6C2.9,6.5,2,8.6,2,11C2,11.7,2.1,12.5,2.3,13.2L2.3,13.2"/>
	<path class="st1" d="M16.5,11.7l-1.9,0.9l-2.5,0.5l3.1,2.2l-7.5-3.5l-0.5-0.3l-1,0.1l-0.3,1l-1.2,0.1l-2.5-0.3l0.1,0.7
		C2.1,12.5,2,11.7,2,11c0-2.4,0.9-4.5,2.7-6.3c1.7-1.7,3.8-2.6,6.2-2.6c2.5,0,4.7,0.9,6.4,2.6c1.7,1.8,2.6,3.9,2.6,6.3l-0.1,1.5
		L16.5,11.7"/>
	<path class="st2" d="M19.8,12.5L19.8,12.5c-0.2,1.9-1,3.6-2.5,4.9c-1.7,1.8-3.8,2.7-6.3,2.7c-1.6,0-3-0.4-4.3-1.1L6,18.4L5.3,18
		l-0.7-0.6c-0.9-0.9-1.5-1.8-2-2.9L2.5,14l-0.1-0.4l-0.1-0.2v-0.2l-0.1-0.1l-0.1-0.7l2.5,0.3l1.2-0.1l0.3-1l1-0.1l0.5,0.3l7.5,3.5
		l-3.1-2.2l2.5-0.5l1.9-0.9L19.8,12.5"/>
	<path class="st3" d="M21.3,11c0,2.8-1,5.2-3,7.3c-2,2-4.5,3-7.3,3s-5.3-1-7.3-3c-2-2-3.1-4.5-3.1-7.3c0-2.9,1-5.3,3.1-7.3
		c2-2,4.4-3,7.3-3s5.3,1,7.3,3C20.3,5.7,21.3,8.1,21.3,11z"/>
</g>
</svg>
