<?xml version="1.0" encoding="utf-8"?>
<!-- Generator: Adobe Illustrator 22.0.1, SVG Export Plug-In . SVG Version: 6.00 Build 0)  -->
<svg version="1.1" id="Layer_1" xmlns:author="http://www.sothink.com"
	 xmlns="http://www.w3.org/2000/svg" xmlns:xlink="http://www.w3.org/1999/xlink" x="0px" y="0px" viewBox="0 0 22 22"
	 style="enable-background:new 0 0 22 22;" xml:space="preserve">
<style type="text/css">
	.st0{fill:#FD890B;}
	
		.st1{fill:none;stroke:#000000;stroke-width:5.000000e-02;stroke-linecap:round;stroke-linejoin:round;stroke-miterlimit:3;stroke-opacity:0.502;}
</style>
<g>
	<path class="st0" d="M18.1,5.7l0.5-1V4.6c0.2-0.7,0.7-1,1.4-1c0.7,0,1.2,0.4,1.4,1.2v0.1l0.4,2.5c0.2,1,0,1.7-0.6,2.4l-1,0.6
		l0.4,1.1l-0.8,1.7h-0.1l-0.8,0.5l0.1,0.6l-0.7,1.7h-0.1l-1,0.5L17,17.4l-0.7,1.2l-1.7,0.5c-0.7,0-1.3-0.2-1.7-0.5L12,17.4V17h-2
		l-0.1,0.5l-0.6,1.2H9.2l-1.7,0.5l-1.7-0.5L5,17.4L4.9,17v-0.5l-1.1-0.5C3.3,15.5,3,14.9,3,14.3l0.2-0.6l-0.8-0.5H2.3
		c-0.5-0.5-0.8-1.1-0.8-1.7l0.4-1.1l-1-0.6C0.3,9.1,0.1,8.3,0.2,7.4l0.4-2.8c0.2-0.7,0.7-1,1.4-1c0.7,0,1.1,0.3,1.4,1L4,6l0.5,0.1V6
		c0-0.6,0.3-1.1,0.8-1.6C5.9,4,6.5,3.8,7.2,3.8l1.4,0.4l0.5-0.6C9.5,3.2,9.9,3,10.4,2.9h0.7c0.7,0,1.3,0.2,1.8,0.6L13.4,4l1.4-0.3
		c0.8,0,1.4,0.2,1.9,0.6c0.5,0.5,0.8,1,0.8,1.6v0.1L17.9,6L18.1,5.7L18.1,5.7 M6.8,10.5v0.6l0.4,1.6l0.7,0.5H8l0.8-0.5H8.7l0.5-1.6
		v-0.3L8.8,9.7V9.6L7.9,9.1L7.2,9.6L6.8,10.5 M14.8,9.7L14,9.1l-0.8,0.7l-0.4,1.1l0.1,0.8l0.4,1.1l0.1,0.1l0.6,0.4h0.1l0.7-0.5h-0.1
		l0.5-1.6l-0.1-0.5v-0.1L14.8,9.7L14.8,9.7"/>
	<path class="st1" d="M18.1,5.8L17.9,6l-0.5,0.1V6c0-0.6-0.3-1.1-0.8-1.6c-0.5-0.4-1.1-0.6-1.9-0.6L13.4,4l-0.5-0.5
		c-0.5-0.4-1.1-0.6-1.8-0.6h-0.7C9.9,3,9.5,3.2,9.2,3.5L8.6,4.1L7.2,3.8C6.5,3.8,5.9,4,5.4,4.4C4.9,4.9,4.6,5.4,4.6,6v0.1L4,6
		L3.3,4.6c-0.2-0.7-0.7-1-1.4-1c-0.7,0-1.1,0.3-1.4,1L0.2,7.4c-0.2,1,0,1.7,0.6,2.4l1,0.6l-0.4,1.1c0,0.7,0.3,1.2,0.8,1.7h0.1
		l0.8,0.5L3,14.3c0,0.6,0.3,1.2,0.8,1.7l1.1,0.5V17L5,17.4l0.7,1.2l1.7,0.5l1.7-0.5h0.1l0.6-1.2L10,17h2v0.5l0.8,1.2
		c0.4,0.4,1,0.5,1.7,0.5l1.7-0.5l0.7-1.2l0.1-0.9l1-0.5h0.1l0.7-1.7l-0.1-0.6l0.8-0.5h0.1l0.8-1.7l-0.4-1.1l1-0.6
		c0.6-0.6,0.8-1.4,0.6-2.4l-0.4-2.5V4.8C21.2,4,20.8,3.6,20,3.6c-0.7,0-1.1,0.3-1.4,1v0.1L18.1,5.8L18.1,5.8 M7.2,9.6l0.7-0.5
		l0.9,0.5v0.1l0.4,1.2v0.3l-0.5,1.6h0.1L8,13.3H7.9l-0.7-0.5l-0.4-1.6v-0.6L7.2,9.6 M14.7,9.6l0.4,0.9v0.1l0.1,0.5l-0.5,1.6h0.1
		l-0.7,0.5H14l-0.6-0.4l-0.1-0.1l-0.4-1.1l-0.1-0.8l0.4-1.1L14,9.1L14.7,9.6L14.7,9.6"/>
</g>
</svg>
