<?xml version="1.0" encoding="utf-8"?>
<!-- Generator: Adobe Illustrator 22.0.1, SVG Export Plug-In . SVG Version: 6.00 Build 0)  -->
<svg version="1.1" id="Layer_1" xmlns:author="http://www.sothink.com"
	 xmlns="http://www.w3.org/2000/svg" xmlns:xlink="http://www.w3.org/1999/xlink" x="0px" y="0px" viewBox="0 0 22 22"
	 style="enable-background:new 0 0 22 22;" xml:space="preserve">
<style type="text/css">
	.st0{fill:#A67930;}
	.st1{fill:#7D5924;}
	
		.st2{fill:none;stroke:#000000;stroke-width:0.2;stroke-linecap:round;stroke-linejoin:round;stroke-miterlimit:3;stroke-opacity:0.302;}
	.st3{fill:#FFD500;}
</style>
<g>
	<path class="st0" d="M3.7,16.4l-3.6-2l11.6-5.1v3.6L3.7,16.4"/>
	<path d="M11.7,12.9l6.7,3.8l-8.1,3.6l-6.6-3.8L11.7,12.9"/>
	<path class="st1" d="M11.7,12.9V9.3l10.2,5.9l-3.5,1.6L11.7,12.9"/>
	<path class="st2" d="M11.7,9.3l10.2,5.9l-3.5,1.6l-8.1,3.6l-6.6-3.8l-3.6-2L11.7,9.3v3.6l6.7,3.8 M3.7,16.4l8.1-3.6"/>
	<path class="st3" d="M5.5,11l6.2-9.3h8.4l-4.8,6.7h4.8L5.5,16.9L10,11H5.5"/>
	<path class="st2" d="M5.5,11l6.2-9.3h8.4l-4.8,6.7h4.8L5.5,16.9L10,11H5.5z"/>
</g>
</svg>
