<svg id="Layer_1" data-name="Layer 1" xmlns="http://www.w3.org/2000/svg" viewBox="0 0 21.97 22"><defs><style>.cls-1{fill:#84c1fc;}.cls-2{fill:#034b93;}.cls-3{fill:#1e8dfd;}.cls-4{fill:#e2e2e2;}.cls-5{fill:#d6e5f2;}.cls-6{fill:#11487e;}.cls-7{fill:#134878;}.cls-8{fill:#0f4881;}.cls-9{fill:#7596b6;}.cls-10{fill:#0d4884;}.cls-11{fill:#d4e3f0;}.cls-12{fill:#0d4684;}.cls-13{fill:#7697b7;}.cls-14{fill:#0e4b88;}.cls-15{fill:#b8dbf3;}.cls-16{fill:#10497b;}.cls-17{fill:#c5ddef;}.cls-18{fill:#93b7dd;}.cls-19{fill:#0e4a7f;}.cls-20{fill:#dde5eb;}.cls-21{fill:#d4e5f8;}.cls-22{fill:#a5bed8;}.cls-23{fill:#c6ebfe;}</style></defs><title>Water_square</title><path class="cls-1" d="M0,11V.18C0,0,0,0,.19,0H21.81C22,0,22,0,22,.17V21.82c0,.13,0,.18-.17.18H.2C.05,22,0,22,0,21.82Z" transform="translate(-0.02)"/><path class="cls-2" d="M10.69.85A11.45,11.45,0,0,1,12,.85a28.52,28.52,0,0,0,2.92.06c1,0,2,0,3,0h2.94c.22,0,.2,0,.2.2V21c0,.25,0,.22-.22.22H.89c-.15,0-.19,0-.19-.2V2.8c0-.57,0-1.14,0-1.72C.7.94.73.91.88.91H9.79c.07,0,.11,0,.15.09a2.65,2.65,0,0,1,.33.65c0,.06.05.13,0,.18s0,0-.05,0H1.91a.53.53,0,0,0-.28,0l0,0a.55.55,0,0,0,0,.28V20.05a.4.4,0,0,0,.06.28.24.24,0,0,0,.16.05H19.71c.11,0,.23,0,.33-.06a.22.22,0,0,0,.05-.16v-18a.65.65,0,0,0,0-.28s0,0,0,0a.31.31,0,0,0-.21-.05h-6.9a.39.39,0,0,0-.15,0l0,0c0,.1.07.16.1.24.2.42.4.83.59,1.25.42.9.81,1.82,1.16,2.75a18.1,18.1,0,0,1,.92,3.13,7.85,7.85,0,0,1,.13,1.81,15.24,15.24,0,0,1-.23,2.13,7.63,7.63,0,0,1-.49,1.58,5,5,0,0,1-.6,1A3.75,3.75,0,0,1,12.7,17a3.93,3.93,0,0,1-.67.19c-.11,0-.22-.05-.32,0a.5.5,0,0,1-.27.05,6.62,6.62,0,0,1-1.09,0c-.35,0-.71-.09-1.06-.15a3.2,3.2,0,0,1-1.15-.46,5.07,5.07,0,0,1-1.24-1,3.18,3.18,0,0,1-.72-1.18,4.06,4.06,0,0,1-.13-1.25c0-.07,0-.14.07-.17a.23.23,0,0,1,.21.05,5,5,0,0,0,1.3.49,3.18,3.18,0,0,0,1.83-.17A4.39,4.39,0,0,0,11,12.5a5,5,0,0,0,.6-.76,3.79,3.79,0,0,0,.57-1.36,10.6,10.6,0,0,0,.16-1.13,15,15,0,0,0,.08-1.77,17.9,17.9,0,0,0-.15-1.94,29.9,29.9,0,0,0-.72-3.22,4.56,4.56,0,0,0-.18-.6A1.74,1.74,0,0,0,10.78,1S10.67.93,10.69.85Z" transform="translate(-0.02)"/><path class="cls-3" d="M10.69.85a2.1,2.1,0,0,1,.87,1.42c.15.66.33,1.3.49,1.95a14.08,14.08,0,0,1,.34,2.33,12.47,12.47,0,0,1,0,1.37,14.74,14.74,0,0,1-.23,2.47,3.53,3.53,0,0,1-.59,1.38,5,5,0,0,1-.44.59,4.08,4.08,0,0,1-2.65,1.38,3.62,3.62,0,0,1-2-.43l-.4-.21c-.09,0-.1-.09-.09-.17A6.61,6.61,0,0,1,6.6,11,13.8,13.8,0,0,1,7.84,9,23.47,23.47,0,0,0,9.1,7a13.21,13.21,0,0,0,1-2.25,6.79,6.79,0,0,0,.28-1.34,4.52,4.52,0,0,0-.11-1.51.13.13,0,0,1,0-.06,2.67,2.67,0,0,0-.47-.9c0-.1.06-.06.09-.06C10.15.84,10.42.85,10.69.85Z" transform="translate(-0.02)"/><path class="cls-4" d="M12,17.12a3.7,3.7,0,0,0,2.57-1.86,7.13,7.13,0,0,0,.84-2.62,15,15,0,0,0,.14-1.89A9,9,0,0,0,15.14,8a33.49,33.49,0,0,0-1.85-4.76c-.17-.39-.35-.77-.53-1.15,0,0,0-.09,0-.14s0-.13.09-.14h2.91a1.67,1.67,0,0,0,.32,0h3.91c.1,0,.15,0,.15.14V20.11c0,.27,0,.27-.28.27H1.72a.21.21,0,0,1-.15,0,.35.35,0,0,1,0-.17V1.89c0-.06.07-.06.12-.06H10c.23,0,.24,0,.3.23a3.85,3.85,0,0,1,.09,1.22,7.36,7.36,0,0,1-.62,2.35A17.46,17.46,0,0,1,8.41,8.18c-.31.5-.66,1-1,1.45a8.61,8.61,0,0,0-1.18,2.44,4.78,4.78,0,0,0-.18,1.25,3.86,3.86,0,0,0,.12,1.07s0,.09.06.12a4.35,4.35,0,0,0,2.23,2.26,4.46,4.46,0,0,0,1.43.38,7.1,7.1,0,0,0,1.38.07,2.12,2.12,0,0,0,.43-.06A.66.66,0,0,1,12,17.12Z" transform="translate(-0.02)"/><path class="cls-4" d="M14.31,10.52a11.67,11.67,0,0,1-.24,2.36,10.88,10.88,0,0,1-.84,2.78,2.15,2.15,0,0,1-.14.26.55.55,0,0,1-.42.22c-.58,0-1.16.08-1.74.11a2.59,2.59,0,0,1-.82-.16,6.54,6.54,0,0,1-1.9-1c0-.09.08-.06.12,0l.31.06c.43.09.87.15,1.29.28a2.39,2.39,0,0,0,2.25-.53,4.13,4.13,0,0,0,1.25-1.75,6.12,6.12,0,0,0,.44-1.31c.07-.35.17-.7.23-1.05s.08-.6.14-.9c0,0,0-.07.06-.06s0,0,0,.08A4.16,4.16,0,0,1,14.31,10.52Z" transform="translate(-0.02)"/><path class="cls-5" d="M6.25,14.51c-.09,0-.07-.13-.09-.19a2.19,2.19,0,0,1-.1-.88,1.2,1.2,0,0,0,0-.19,4.64,4.64,0,0,1,.37-1.8A9.84,9.84,0,0,1,7.59,9.34c.38-.53.74-1.06,1.07-1.62A15.78,15.78,0,0,0,9.81,5.48a8.84,8.84,0,0,0,.43-1.32,4.91,4.91,0,0,0,.14-1.38A4.89,4.89,0,0,0,10.27,2a.14.14,0,0,0-.17-.13H1.58s0,0,0-.05a.55.55,0,0,1,.18,0h8.28a.42.42,0,0,1,.22,0A4.27,4.27,0,0,1,10.33,4a11.19,11.19,0,0,1-1.16,3C8.63,7.94,8,8.86,7.35,9.8a8,8,0,0,0-1.1,2.37,6.55,6.55,0,0,0-.15.77.29.29,0,0,0,0,.16c-.07,0,0,.08,0,.12A3.32,3.32,0,0,0,6.25,14.51Z" transform="translate(-0.02)"/><path class="cls-6" d="M1.55,20.39a.23.23,0,0,1,0-.16V2a.25.25,0,0,1,0-.17.13.13,0,0,1,0,.06V20.31a.06.06,0,0,1,0,.06Z" transform="translate(-0.02)"/><path class="cls-7" d="M20.11,1.84a.32.32,0,0,1,0,.17v18.2c0,.06,0,.13,0,.18l0,0s0,0,0-.05V2a.53.53,0,0,1,0-.13A.05.05,0,0,1,20.11,1.84Z" transform="translate(-0.02)"/><path class="cls-8" d="M20.1,20.39a.23.23,0,0,1-.16,0H1.72a.25.25,0,0,1-.17,0h0c.05,0,.11,0,.17,0q9.12,0,18.23,0c.05,0,.11,0,.15,0Z" transform="translate(-0.02)"/><path class="cls-9" d="M1.55,1.84v0h0c.05,0,.1,0,.15,0h8.37a.45.45,0,0,1,.16,0h0v0H1.58S1.56,1.86,1.55,1.84Z" transform="translate(-0.02)"/><path class="cls-10" d="M10.23,1.81H1.55a.25.25,0,0,1,.17,0h8.35A.23.23,0,0,1,10.23,1.81Z" transform="translate(-0.02)"/><path class="cls-11" d="M15.7,1.87H12.93c-.2,0-.2,0-.17.18v.06a1.15,1.15,0,0,1-.14-.27.22.22,0,0,1,.16,0H19.9c.05,0,.09,0,.13,0s0,0,0,0a.48.48,0,0,1-.12,0H15.83A.3.3,0,0,1,15.7,1.87Z" transform="translate(-0.02)"/><path class="cls-12" d="M12.62,1.81a.25.25,0,0,1,.17,0h7.14a.25.25,0,0,1,.17,0s-.06,0-.1,0H12.76A.33.33,0,0,1,12.62,1.81Z" transform="translate(-0.02)"/><path class="cls-13" d="M12.62,1.81H20.1v0h0s0,0-.05,0H12.62Z" transform="translate(-0.02)"/><path class="cls-14" d="M14.25,9.91a15,15,0,0,1-.35,1.87l0,.06a1.38,1.38,0,0,1,.08-.45c.05-.28.12-.55.16-.84s.08-.58.13-.86,0-.45.07-.67c0,0,0-.06,0-.08a.82.82,0,0,1,0,.27,1.69,1.69,0,0,0,0,.23A1.28,1.28,0,0,1,14.25,9.91Z" transform="translate(-0.02)"/><path class="cls-15" d="M14.25,9.91l.06-.5c.11.06,0,.17,0,.25s0,.44,0,.66c0,.06,0,.14,0,.2,0-.2,0-.4,0-.61,0,0,0-.05,0,0Z" transform="translate(-0.02)"/><path class="cls-16" d="M14.34,10.32V9.65a.7.7,0,0,0,0-.25c0-.06,0-.11,0-.16a1.41,1.41,0,0,1,0,.5A3.79,3.79,0,0,1,14.34,10.32Z" transform="translate(-0.02)"/><path class="cls-17" d="M8.64,15.15a.86.86,0,0,1-.28,0c-.06,0-.11,0-.15,0l-.12-.07A1.48,1.48,0,0,1,8.64,15.15Z" transform="translate(-0.02)"/><path class="cls-18" d="M14.37,9.24a2.73,2.73,0,0,1,0,.41c0-.07,0-.16,0-.24s0-.15,0-.2Z" transform="translate(-0.02)"/><path class="cls-19" d="M12,17.12l-.28,0A.28.28,0,0,1,12,17.12Z" transform="translate(-0.02)"/><path class="cls-20" d="M15.7,1.87h4.35s0,0,0,0V20.19a.55.55,0,0,1,0,.18.29.29,0,0,1-.13,0H1.6s0,0,0,0H19.85c.19,0,.19,0,.19-.2v-18c0-.19,0-.19-.19-.19h-4A.36.36,0,0,1,15.7,1.87Z" transform="translate(-0.02)"/><path class="cls-21" d="M1.58,20.34v0s0,0,0,0V1.84h0v18.5Z" transform="translate(-0.02)"/><path class="cls-22" d="M1.55,20.36H20.1v0H1.55Z" transform="translate(-0.02)"/><path class="cls-23" d="M20.1,20.36h0V2.08c0-.07,0-.15,0-.21v0h.05V20.36Z" transform="translate(-0.02)"/></svg>